<svg xmlns="http://www.w3.org/2000/svg" xmlns:xlink="http://www.w3.org/1999/xlink" width="12.499" height="20" viewBox="0 0 12.499 20"><defs><linearGradient id="a" x1="0.5" x2="0.5" y2="1" gradientUnits="objectBoundingBox"><stop offset="0" stop-color="#b927ff"/><stop offset="1" stop-color="#2567ff"/></linearGradient></defs><g transform="translate(-19 -43.5)"><path d="M-3128.375-1408.5a1.875,1.875,0,0,1-1.875-1.875v-16.25a1.875,1.875,0,0,1,1.875-1.875h8.75a1.875,1.875,0,0,1,1.875,1.875v16.25a1.875,1.875,0,0,1-1.875,1.875Zm3.125-2.5a1.249,1.249,0,0,0,1.25,1.25,1.249,1.249,0,0,0,1.25-1.25,1.249,1.249,0,0,0-1.25-1.25A1.249,1.249,0,0,0-3125.25-1411Zm-3.125-15.156v12.188a.469.469,0,0,0,.469.468h7.812a.47.47,0,0,0,.469-.468v-12.188a.47.47,0,0,0-.469-.469h-7.812A.47.47,0,0,0-3128.375-1426.156Z" transform="translate(3149.25 1472)" fill="url(#a)"/></g></svg>