<svg xmlns="http://www.w3.org/2000/svg" xmlns:xlink="http://www.w3.org/1999/xlink" width="15" height="20.001" viewBox="0 0 15 20.001"><defs><linearGradient id="a" x1="0.5" x2="0.5" y2="1" gradientUnits="objectBoundingBox"><stop offset="0" stop-color="#b927ff"/><stop offset="1" stop-color="#2567ff"/></linearGradient></defs><g transform="translate(-19 -123)"><path d="M-3129.125-1408a1.876,1.876,0,0,1-1.876-1.876v-16.25a1.876,1.876,0,0,1,1.876-1.876h7.972a1.877,1.877,0,0,1,1.324.551l3.278,3.278a1.866,1.866,0,0,1,.551,1.324v12.973a1.876,1.876,0,0,1-1.875,1.876Zm0-1.876h11.25v-11.25h-4.063a.935.935,0,0,1-.938-.937v-4.063h-6.25ZM-3121-1423h2.973l-2.973-2.973Zm-5.781,9.531a.47.47,0,0,1-.469-.469v-1.094a.47.47,0,0,1,.469-.469h6.562a.47.47,0,0,1,.469.469v1.094a.47.47,0,0,1-.469.469Zm0-3.281a.469.469,0,0,1-.469-.468v-1.094a.47.47,0,0,1,.469-.469h6.562a.47.47,0,0,1,.469.469v1.094a.469.469,0,0,1-.469.468Z" transform="translate(3150 1551)" fill="url(#a)"/></g></svg>