<svg xmlns="http://www.w3.org/2000/svg" xmlns:xlink="http://www.w3.org/1999/xlink" width="305.453" height="33.652" viewBox="0 0 305.453 33.652"><defs><linearGradient id="a" y1="0.5" x2="1" y2="0.5" gradientUnits="objectBoundingBox"><stop offset="0" stop-color="#b927ff"/><stop offset="1" stop-color="#2567ff"/></linearGradient></defs><path d="M-2255.706-1021.775a14.723,14.723,0,0,1-5.429-2.984l1.74-3.667a14.377,14.377,0,0,0,4.817,2.75,17.689,17.689,0,0,0,6.04,1.057q4.089,0,6.11-1.386a4.274,4.274,0,0,0,2.021-3.689,3.633,3.633,0,0,0-1.1-2.749,7.38,7.38,0,0,0-2.726-1.622q-1.621-.564-4.582-1.269a47.209,47.209,0,0,1-5.993-1.786,9.9,9.9,0,0,1-3.9-2.75,7.342,7.342,0,0,1-1.622-5,8.471,8.471,0,0,1,1.387-4.747,9.527,9.527,0,0,1,4.207-3.384,17.057,17.057,0,0,1,7-1.269,22.163,22.163,0,0,1,5.734.752,15.259,15.259,0,0,1,4.841,2.162l-1.552,3.76a17.016,17.016,0,0,0-4.418-2,16.507,16.507,0,0,0-4.605-.681q-4,0-5.993,1.457a4.464,4.464,0,0,0-2,3.76,3.6,3.6,0,0,0,1.128,2.75,7.847,7.847,0,0,0,2.8,1.645,43.738,43.738,0,0,0,4.535,1.245,45.822,45.822,0,0,1,5.969,1.786,10.045,10.045,0,0,1,3.877,2.726,7.175,7.175,0,0,1,1.622,4.935,8.4,8.4,0,0,1-1.409,4.723,9.44,9.44,0,0,1-4.278,3.384,17.68,17.68,0,0,1-7.05,1.246A22.512,22.512,0,0,1-2255.706-1021.775Zm99.335.776v-32.9h23.217v4.089h-18.517v10.105h16.5v4h-16.5v10.622h19.175v4.09Zm-9.823,0-3.619-8.225H-2187.3l-3.619,8.225h-4.841l14.9-32.9h4.653l14.947,32.9Zm-19.458-11.985h14.194l-7.1-16.121ZM-2205.346-1021v-14.665h-18.894V-1021h-4.7v-32.9h4.7v14.147h18.894V-1053.9h4.7v32.9Zm-62.98,0-7.849-11a24.012,24.012,0,0,1-3.2.235h-9.4V-1021h-2.4v-32.9h11.8q6.2,0,9.729,2.938a10.036,10.036,0,0,1,3.525,8.154,10.6,10.6,0,0,1-2,6.557,10.585,10.585,0,0,1-5.711,3.736L-2265.6-1021Zm-20.444-12.878h9.4q5.265,0,8.037-2.327a8.142,8.142,0,0,0,2.773-6.6,8.141,8.141,0,0,0-2.773-6.6q-2.773-2.326-8.037-2.327h-9.4ZM-2311.989-1021v-11.327l-13.254-21.573h2.632l11.891,19.364,11.891-19.364h2.491l-13.254,21.573V-1021Zm-42.395,0v-32.9h13.724q5.358,0,8.343,2.185a7.26,7.26,0,0,1,2.984,6.228,7.556,7.556,0,0,1-1.48,4.747,8.173,8.173,0,0,1-4.019,2.773,9.116,9.116,0,0,1,5.381,2.774,8.029,8.029,0,0,1,1.857,5.5,7.524,7.524,0,0,1-3.054,6.439q-3.055,2.256-9.071,2.256Zm2.4-2.068h12.267q4.794,0,7.261-1.669a5.78,5.78,0,0,0,2.468-5.146,5.722,5.722,0,0,0-2.468-5.124q-2.468-1.644-7.261-1.644h-12.267Zm0-15.651h11.233a11.3,11.3,0,0,0,6.65-1.669,5.658,5.658,0,0,0,2.327-4.911,5.61,5.61,0,0,0-2.327-4.865,11.3,11.3,0,0,0-6.65-1.669h-11.233ZM-2368.2-1021l-.047-28.153-13.771,23.781h-1.176l-13.771-23.688V-1021h-2.35v-32.9h2.021l14.71,25.427,14.711-25.427h1.974l.047,32.9Zm-39.667,0-4.23-9.259h-19.083l-4.182,9.259h-2.586l15.135-32.9h2.4l15.134,32.9Zm-22.372-11.281h17.249l-8.647-18.987Z" transform="translate(2437.949 1054.276)" fill="url(#a)"/></svg>