<svg xmlns="http://www.w3.org/2000/svg" xmlns:xlink="http://www.w3.org/1999/xlink" width="20" height="20" viewBox="0 0 20 20"><defs><linearGradient id="a" x1="0.5" x2="0.5" y2="1" gradientUnits="objectBoundingBox"><stop offset="0" stop-color="#b927ff"/><stop offset="1" stop-color="#2567ff"/></linearGradient></defs><g transform="translate(-30 -177)"><path d="M-3131.857-1409a2.143,2.143,0,0,1-2.143-2.142v-15.715a2.143,2.143,0,0,1,2.143-2.143h15.714a2.144,2.144,0,0,1,2.143,2.143v15.715a2.143,2.143,0,0,1-2.143,2.142Zm11.781-14.08a2.79,2.79,0,0,1,.075,2.009,2.291,2.291,0,0,1,.764,1.741c0,2.853-1.741,3.081-3.393,3.263a1.741,1.741,0,0,1,.5,1.371c0,1-.009,2.228-.009,2.469,0,.192.139.424.514.357a7.338,7.338,0,0,0,4.942-7.067,7.243,7.243,0,0,0-7.42-7.21,7.084,7.084,0,0,0-7.232,7.21,7.407,7.407,0,0,0,5.009,7.067c.38.067.514-.166.514-.357s-.009-1.192-.009-1.813c0,0-2.072.446-2.5-.879,0,0-.339-.857-.821-1.08,0,0-.674-.464.049-.455a1.553,1.553,0,0,1,1.138.763,1.566,1.566,0,0,0,2.156.62,1.621,1.621,0,0,1,.473-1c-1.652-.183-3.317-.424-3.317-3.263a2.241,2.241,0,0,1,.7-1.741,2.772,2.772,0,0,1,.076-2.009c.621-.193,2.04.8,2.04.8a6.943,6.943,0,0,1,1.858-.25,6.937,6.937,0,0,1,1.857.25,4.8,4.8,0,0,1,1.858-.824A.618.618,0,0,1-3120.076-1423.08Zm-6.513,8.335c-.089,0-.156.049-.156.107s.067.116.166.107.157-.05.157-.107-.069-.108-.146-.108Zm.549-.072c-.084.018-.143.076-.134.143s.09.094.175.076.147-.076.134-.134-.074-.086-.149-.086Zm-1.3.045c-.018.058.04.125.125.142s.165,0,.183-.058-.036-.125-.125-.152a.208.208,0,0,0-.047-.005A.134.134,0,0,0-3127.344-1414.772Zm-.473-.366c-.045.041-.027.125.04.183s.152.076.193.027.018-.125-.041-.183a.177.177,0,0,0-.122-.058A.087.087,0,0,0-3127.817-1415.138Zm-.339-.437c-.049.031-.049.107,0,.174s.125.094.166.068a.132.132,0,0,0,0-.184.146.146,0,0,0-.115-.076A.078.078,0,0,0-3128.156-1415.576Zm-.3-.375c-.04.031-.031.1.017.157s.116.067.157.027.031-.1-.018-.157a.163.163,0,0,0-.1-.048A.072.072,0,0,0-3128.455-1415.951Zm-.317-.246c-.019.04.008.09.067.116a.084.084,0,0,0,.125-.017c.018-.036-.009-.086-.067-.116a.159.159,0,0,0-.057-.011A.078.078,0,0,0-3128.772-1416.2Z" transform="translate(3164 1606)" fill="url(#a)"/></g></svg>