<svg xmlns="http://www.w3.org/2000/svg" width="278.081" height="28.823" viewBox="0 0 278.081 28.823"><path d="M1.76,0A.768.768,0,0,1,1.2-.24.768.768,0,0,1,.96-.8l.08-.44L11.16-27.2a1.16,1.16,0,0,1,1.16-.8h1.36a1.16,1.16,0,0,1,1.16.8L24.96-1.24l.08.44a.768.768,0,0,1-.24.56.767.767,0,0,1-.56.24h-.8a.829.829,0,0,1-.58-.2,1.122,1.122,0,0,1-.3-.4L20.08-7H5.92L3.44-.6a1.122,1.122,0,0,1-.3.4.829.829,0,0,1-.58.2ZM6.88-9.4H19.12L13-25.16ZM36.12,0a.935.935,0,0,1-.66-.24.829.829,0,0,1-.26-.64v-26.2a.879.879,0,0,1,.26-.68.935.935,0,0,1,.66-.24h1a.851.851,0,0,1,.84.52L47.04-9.8l9.12-17.68A.9.9,0,0,1,57-28h.96a.92.92,0,0,1,.68.24.92.92,0,0,1,.24.68V-.88a.829.829,0,0,1-.26.64.935.935,0,0,1-.66.24h-.72a.865.865,0,0,1-.64-.24.865.865,0,0,1-.24-.64V-22.56L48.72-7.52a1.26,1.26,0,0,1-1.24.8H46.6a1.26,1.26,0,0,1-1.24-.8L37.72-22.56V-.88a.865.865,0,0,1-.24.64.865.865,0,0,1-.64.24Zm36.6,0a.865.865,0,0,1-.64-.24.865.865,0,0,1-.24-.64v-26.2a.935.935,0,0,1,.24-.66.829.829,0,0,1,.64-.26H83.16q3.96,0,6,2.04a6.944,6.944,0,0,1,2.04,5.12,6.726,6.726,0,0,1-1.04,3.88,6.251,6.251,0,0,1-2.48,2.2,7.605,7.605,0,0,1,2.9,2.68,7.415,7.415,0,0,1,1.18,4.16,8.1,8.1,0,0,1-.98,3.9A7.426,7.426,0,0,1,87.92-1.1,8.718,8.718,0,0,1,83.44,0Zm9.92-15.84a6.81,6.81,0,0,0,4.5-1.3,4.574,4.574,0,0,0,1.54-3.7,4.236,4.236,0,0,0-1.54-3.56,7.213,7.213,0,0,0-4.5-1.2H74.36v9.76Zm.4,13.44A6.4,6.4,0,0,0,87.6-3.94a5.213,5.213,0,0,0,1.64-3.98,5.2,5.2,0,0,0-1.64-4,6.452,6.452,0,0,0-4.56-1.52H74.36V-2.4ZM111.08,0a.865.865,0,0,1-.64-.24.865.865,0,0,1-.24-.64v-9.8l-9.76-16a1.246,1.246,0,0,1-.16-.52.768.768,0,0,1,.24-.56.767.767,0,0,1,.56-.24h.8a1.058,1.058,0,0,1,.92.6l8.68,14.12,8.68-14.12a1.058,1.058,0,0,1,.92-.6h.8a.767.767,0,0,1,.56.24.767.767,0,0,1,.24.56,1.246,1.246,0,0,1-.16.52l-9.76,16v9.8a.829.829,0,0,1-.26.64.935.935,0,0,1-.66.24ZM134.2,0a.865.865,0,0,1-.64-.24.865.865,0,0,1-.24-.64v-26.2a.935.935,0,0,1,.24-.66.829.829,0,0,1,.64-.26h9.32a10.23,10.23,0,0,1,6.76,2.04,7.425,7.425,0,0,1,2.44,6.04,7.892,7.892,0,0,1-1.56,5.1,7.793,7.793,0,0,1-4.48,2.62l6.44,10.96a1,1,0,0,1,.12.44.768.768,0,0,1-.24.56.768.768,0,0,1-.56.24h-.48a1.343,1.343,0,0,1-.9-.26,3.176,3.176,0,0,1-.62-.82l-6.36-10.76h-8.24V-.88a.829.829,0,0,1-.26.64.935.935,0,0,1-.66.24Zm9.12-14.24a7.954,7.954,0,0,0,5.18-1.42,5.234,5.234,0,0,0,1.7-4.26,5.234,5.234,0,0,0-1.7-4.26,7.954,7.954,0,0,0-5.18-1.42h-7.48v11.36ZM173.04.4a14.358,14.358,0,0,1-5.7-1.04,8.736,8.736,0,0,1-3.68-2.74,6.49,6.49,0,0,1-1.34-3.66.767.767,0,0,1,.24-.56.814.814,0,0,1,.6-.24h1.96a1.021,1.021,0,0,1,1,.8,4.812,4.812,0,0,0,2.06,2.9,8.254,8.254,0,0,0,4.86,1.22,8.761,8.761,0,0,0,5.08-1.2,3.855,3.855,0,0,0,1.68-3.32,3.156,3.156,0,0,0-.82-2.24,6.8,6.8,0,0,0-2.44-1.54q-1.62-.66-4.86-1.62a24.233,24.233,0,0,1-4.9-1.88,7.286,7.286,0,0,1-2.74-2.46,6.827,6.827,0,0,1-.92-3.7,6.687,6.687,0,0,1,1.16-3.86,7.763,7.763,0,0,1,3.36-2.68,12.7,12.7,0,0,1,5.2-.98,11.921,11.921,0,0,1,5.34,1.1,8.737,8.737,0,0,1,3.38,2.76,6.338,6.338,0,0,1,1.24,3.34.814.814,0,0,1-.24.6.814.814,0,0,1-.6.24h-2a1.013,1.013,0,0,1-.6-.2,1.093,1.093,0,0,1-.4-.6A4.027,4.027,0,0,0,177.04-24a7.412,7.412,0,0,0-4.2-1.12,7.729,7.729,0,0,0-4.32,1.06,3.522,3.522,0,0,0-1.6,3.14,3.422,3.422,0,0,0,.74,2.28,6.2,6.2,0,0,0,2.28,1.56,40.212,40.212,0,0,0,4.5,1.56,32.179,32.179,0,0,1,5.34,1.92,7.3,7.3,0,0,1,2.9,2.38,6.408,6.408,0,0,1,.96,3.66,6.856,6.856,0,0,1-2.86,5.86A12.812,12.812,0,0,1,173.04.4Zm22.2-.4a.829.829,0,0,1-.64-.26.935.935,0,0,1-.24-.66V-27.04a.992.992,0,0,1,.24-.7.829.829,0,0,1,.64-.26h1.92a.946.946,0,0,1,.7.26.946.946,0,0,1,.26.7v11.12h13.92V-27.04a.946.946,0,0,1,.26-.7.894.894,0,0,1,.66-.26h1.92a.946.946,0,0,1,.7.26.946.946,0,0,1,.26.7V-.92a.861.861,0,0,1-.28.66.963.963,0,0,1-.68.26h-1.92a.894.894,0,0,1-.66-.26.894.894,0,0,1-.26-.66V-12.44H198.12V-.92a.861.861,0,0,1-.28.66.963.963,0,0,1-.68.26Zm31.12,0a.768.768,0,0,1-.56-.24.768.768,0,0,1-.24-.56l.08-.44,9.92-25.88a1.245,1.245,0,0,1,1.28-.88h2.56a1.245,1.245,0,0,1,1.28.88L250.6-1.24l.08.44a.74.74,0,0,1-.26.56.835.835,0,0,1-.58.24h-1.88a.986.986,0,0,1-.66-.22,1.058,1.058,0,0,1-.34-.46l-2.24-5.76H231.48l-2.2,5.76a1.051,1.051,0,0,1-1,.68Zm6.28-9.76H243.6l-5.48-14.36ZM261.32,0a.829.829,0,0,1-.64-.26.935.935,0,0,1-.24-.66V-27.04a.992.992,0,0,1,.24-.7.829.829,0,0,1,.64-.26h16.44a.946.946,0,0,1,.7.26.946.946,0,0,1,.26.7v1.44a.829.829,0,0,1-.26.64.992.992,0,0,1-.7.24H264.12v8.92h12.76a.946.946,0,0,1,.7.26.946.946,0,0,1,.26.7v1.36a.894.894,0,0,1-.26.66.946.946,0,0,1-.7.26H264.12v9.24h13.96a.946.946,0,0,1,.7.26.946.946,0,0,1,.26.7V-.92a.861.861,0,0,1-.28.66.963.963,0,0,1-.68.26Z" transform="translate(-0.96 28.405)" fill="#30323d"/></svg>