<svg xmlns="http://www.w3.org/2000/svg" xmlns:xlink="http://www.w3.org/1999/xlink" width="20" height="20" viewBox="0 0 20 20"><defs><linearGradient id="a" x1="0.5" x2="0.5" y2="1" gradientUnits="objectBoundingBox"><stop offset="0" stop-color="#b927ff"/><stop offset="1" stop-color="#2567ff"/></linearGradient><linearGradient id="b" x1="0.5" x2="0.5" y2="1" gradientUnits="objectBoundingBox"><stop offset="0" stop-color="#2169ff"/><stop offset="1" stop-color="#be26ff"/></linearGradient></defs><g transform="translate(-64 -106)"><path d="M-3121-1416h-2.482v-3.9c0-.93-.019-2.121-1.293-2.121-1.294,0-1.492,1.01-1.492,2.055V-1416h-2.485v-8.011h2.386v1.093h.035a2.612,2.612,0,0,1,2.354-1.294c2.518,0,2.981,1.659,2.981,3.812v4.4Zm-11.8,0v-8.011h2.488V-1416Zm-.2-10.559a1.441,1.441,0,0,1,1.441-1.441,1.441,1.441,0,0,1,1.441,1.441,1.453,1.453,0,0,1-1.441,1.454A1.453,1.453,0,0,1-3133-1426.559Z" transform="translate(3201 1538)" fill="url(#a)"/><path d="M-2820.739-865h-16.521a1.741,1.741,0,0,1-1.739-1.739v-16.522a1.741,1.741,0,0,1,1.739-1.739h16.521a1.741,1.741,0,0,1,1.74,1.739v16.522A1.741,1.741,0,0,1-2820.739-865Zm-15.41-18.889a1.741,1.741,0,0,0-1.74,1.739v14.3a1.741,1.741,0,0,0,1.74,1.739h14.3a1.741,1.741,0,0,0,1.739-1.739v-14.3a1.741,1.741,0,0,0-1.739-1.739Z" transform="translate(2903 991)" fill="url(#b)"/></g></svg>