<svg xmlns="http://www.w3.org/2000/svg" xmlns:xlink="http://www.w3.org/1999/xlink" width="20" height="20" viewBox="0 0 20 20"><defs><linearGradient id="a" y1="0.5" x2="1" y2="0.5" gradientUnits="objectBoundingBox"><stop offset="0" stop-color="#b927ff"/><stop offset="1" stop-color="#7a43ff"/></linearGradient></defs><g transform="translate(-213 -28)"><path d="M1,0H19a1,1,0,0,1,1,1V3a1,1,0,0,1-1,1H1A1,1,0,0,1,0,3V1A1,1,0,0,1,1,0Z" transform="translate(213 28)" fill="url(#a)"/><path d="M1,0H19a1,1,0,0,1,1,1V3a1,1,0,0,1-1,1H1A1,1,0,0,1,0,3V1A1,1,0,0,1,1,0Z" transform="translate(213 36)" fill="url(#a)"/><path d="M1,0H19a1,1,0,0,1,1,1V3a1,1,0,0,1-1,1H1A1,1,0,0,1,0,3V1A1,1,0,0,1,1,0Z" transform="translate(213 44)" fill="url(#a)"/></g></svg>