<svg xmlns="http://www.w3.org/2000/svg" xmlns:xlink="http://www.w3.org/1999/xlink" width="1920" height="1080" viewBox="0 0 1920 1080"><defs><filter id="a" x="1071" y="129" width="656" height="413" filterUnits="userSpaceOnUse"><feOffset input="SourceAlpha"/><feGaussianBlur stdDeviation="5" result="b"/><feFlood flood-opacity="0.502"/><feComposite operator="in" in2="b"/><feComposite in="SourceGraphic"/></filter><filter id="c" x="1071" y="552" width="448" height="263" filterUnits="userSpaceOnUse"><feOffset input="SourceAlpha"/><feGaussianBlur stdDeviation="5" result="d"/><feFlood flood-opacity="0.502"/><feComposite operator="in" in2="d"/><feComposite in="SourceGraphic"/></filter><clipPath id="f"><rect width="1920" height="1080"/></clipPath></defs><g id="e" clip-path="url(#f)"><rect width="1920" height="1080" fill="#fff"/><g transform="translate(39)"><path d="M7.04-9.48H.96a9.432,9.432,0,0,0,.96,4.56,8.99,8.99,0,0,0,2.7,3.16A11.519,11.519,0,0,0,8.54.06a18.044,18.044,0,0,0,4.58.58,17.585,17.585,0,0,0,5.14-.68,10.869,10.869,0,0,0,3.72-1.9,7.908,7.908,0,0,0,2.26-2.9A8.727,8.727,0,0,0,25-8.48a7,7,0,0,0-1.02-3.94,8.52,8.52,0,0,0-2.42-2.46,10.638,10.638,0,0,0-2.82-1.34q-1.42-.42-2.22-.58-2.68-.68-4.34-1.12a16.1,16.1,0,0,1-2.6-.88,2.856,2.856,0,0,1-1.26-.96A2.567,2.567,0,0,1,8-21.12a2.685,2.685,0,0,1,.4-1.52,3.474,3.474,0,0,1,1.02-1,4.066,4.066,0,0,1,1.38-.56,7.36,7.36,0,0,1,1.52-.16,10.712,10.712,0,0,1,2.14.2,5.158,5.158,0,0,1,1.74.68,3.534,3.534,0,0,1,1.22,1.32,5.05,5.05,0,0,1,.54,2.12h6.08a8.771,8.771,0,0,0-.94-4.22,8.2,8.2,0,0,0-2.54-2.86,10.725,10.725,0,0,0-3.66-1.62,18.169,18.169,0,0,0-4.3-.5,14.633,14.633,0,0,0-3.84.52,10.721,10.721,0,0,0-3.44,1.6,8.517,8.517,0,0,0-2.46,2.7,7.478,7.478,0,0,0-.94,3.82,6.983,6.983,0,0,0,.74,3.34,7.064,7.064,0,0,0,1.94,2.3,10.72,10.72,0,0,0,2.72,1.5,27.348,27.348,0,0,0,3.12.98q1.56.44,3.08.8a19.363,19.363,0,0,1,2.72.84,5.869,5.869,0,0,1,1.94,1.2,2.506,2.506,0,0,1,.74,1.88,2.76,2.76,0,0,1-.56,1.78,3.927,3.927,0,0,1-1.4,1.1,6.263,6.263,0,0,1-1.8.54,12.511,12.511,0,0,1-1.8.14,9.547,9.547,0,0,1-2.4-.3,5.974,5.974,0,0,1-2.02-.92A4.544,4.544,0,0,1,7.56-7.04,5.238,5.238,0,0,1,7.04-9.48Zm28.8-13.8V0h6.28V-23.28h8.56v-5.28H27.28v5.28ZM58.28-11.04,62-21.52h.08l3.6,10.48Zm.6-17.52L48.08,0H54.4l2.24-6.36H67.32L69.48,0H76L65.32-28.56Zm23.04,5.28V0H88.2V-23.28h8.56v-5.28H73.36v5.28ZM125.08-10.8V-28.56H118.8V-10.8a7.146,7.146,0,0,1-1.28,4.7q-1.28,1.5-4.64,1.5a7.234,7.234,0,0,1-3.06-.54,4.636,4.636,0,0,1-1.78-1.4,4.628,4.628,0,0,1-.84-1.98,12.944,12.944,0,0,1-.2-2.28V-28.56h-6.28V-10.8q0,5.84,3.18,8.64t8.98,2.8q5.72,0,8.96-2.82T125.08-10.8Zm10.48,1.32h-6.08a9.432,9.432,0,0,0,.96,4.56,8.99,8.99,0,0,0,2.7,3.16A11.52,11.52,0,0,0,137.06.06a18.044,18.044,0,0,0,4.58.58,17.585,17.585,0,0,0,5.14-.68,10.869,10.869,0,0,0,3.72-1.9,7.908,7.908,0,0,0,2.26-2.9,8.727,8.727,0,0,0,.76-3.64,7,7,0,0,0-1.02-3.94,8.52,8.52,0,0,0-2.42-2.46,10.638,10.638,0,0,0-2.82-1.34q-1.42-.42-2.22-.58-2.68-.68-4.34-1.12a16.1,16.1,0,0,1-2.6-.88,2.856,2.856,0,0,1-1.26-.96,2.567,2.567,0,0,1-.32-1.36,2.685,2.685,0,0,1,.4-1.52,3.474,3.474,0,0,1,1.02-1,4.066,4.066,0,0,1,1.38-.56,7.36,7.36,0,0,1,1.52-.16,10.712,10.712,0,0,1,2.14.2,5.158,5.158,0,0,1,1.74.68,3.534,3.534,0,0,1,1.22,1.32,5.05,5.05,0,0,1,.54,2.12h6.08a8.771,8.771,0,0,0-.94-4.22,8.2,8.2,0,0,0-2.54-2.86,10.725,10.725,0,0,0-3.66-1.62,18.17,18.17,0,0,0-4.3-.5,14.633,14.633,0,0,0-3.84.52,10.72,10.72,0,0,0-3.44,1.6,8.517,8.517,0,0,0-2.46,2.7,7.478,7.478,0,0,0-.94,3.82,6.983,6.983,0,0,0,.74,3.34,7.064,7.064,0,0,0,1.94,2.3,10.72,10.72,0,0,0,2.72,1.5,27.349,27.349,0,0,0,3.12.98q1.56.44,3.08.8a19.363,19.363,0,0,1,2.72.84,5.869,5.869,0,0,1,1.94,1.2,2.506,2.506,0,0,1,.74,1.88,2.76,2.76,0,0,1-.56,1.78,3.927,3.927,0,0,1-1.4,1.1,6.263,6.263,0,0,1-1.8.54,12.511,12.511,0,0,1-1.8.14,9.547,9.547,0,0,1-2.4-.3,5.974,5.974,0,0,1-2.02-.92,4.544,4.544,0,0,1-1.38-1.62A5.238,5.238,0,0,1,135.56-9.48ZM176.24-17v-6.68h5.88a9.156,9.156,0,0,1,1.62.14,4.047,4.047,0,0,1,1.38.5,2.663,2.663,0,0,1,.96,1,3.319,3.319,0,0,1,.36,1.64,3.022,3.022,0,0,1-1.08,2.6,4.515,4.515,0,0,1-2.76.8Zm-6.28-11.56V0H183.8a14.6,14.6,0,0,0,3.74-.48,10,10,0,0,0,3.24-1.48,7.288,7.288,0,0,0,2.26-2.58,7.86,7.86,0,0,0,.84-3.74,7.914,7.914,0,0,0-1.3-4.58,6.864,6.864,0,0,0-3.94-2.66,7.118,7.118,0,0,0,2.9-2.36,6.256,6.256,0,0,0,.98-3.6,7.661,7.661,0,0,0-.66-3.36A5.488,5.488,0,0,0,190-27.02a8.032,8.032,0,0,0-2.88-1.18,17.787,17.787,0,0,0-3.72-.36Zm6.28,23.68v-7.84h6.84a5.292,5.292,0,0,1,3.28.94,3.693,3.693,0,0,1,1.24,3.14,3.926,3.926,0,0,1-.38,1.84,3.02,3.02,0,0,1-1.02,1.14,4.319,4.319,0,0,1-1.48.6,8.381,8.381,0,0,1-1.76.18Zm29.88-6.16,3.72-10.48h.08l3.6,10.48Zm.6-17.52L195.92,0h6.32l2.24-6.36h10.68L217.32,0h6.52L213.16-28.56ZM233.4-5.28v-18h4.48a10.14,10.14,0,0,1,3.9.66,6.12,6.12,0,0,1,2.54,1.9,7.781,7.781,0,0,1,1.38,2.98,16.653,16.653,0,0,1,.42,3.9,11.7,11.7,0,0,1-.6,4,7.337,7.337,0,0,1-1.6,2.66,5.81,5.81,0,0,1-2.28,1.46,8.065,8.065,0,0,1-2.64.44Zm-6.28-23.28V0h12.32a13.671,13.671,0,0,0,5.7-1.1,11.34,11.34,0,0,0,4.04-3.02,12.674,12.674,0,0,0,2.42-4.56,19.786,19.786,0,0,0,.8-5.76,17.8,17.8,0,0,0-.98-6.2,12.188,12.188,0,0,0-2.72-4.4,11.157,11.157,0,0,0-4.12-2.64,14.706,14.706,0,0,0-5.14-.88ZM278.2-3.24,278.84,0h4V-15.44h-12v4.68h6.32a6.867,6.867,0,0,1-1.98,4.58,6.818,6.818,0,0,1-4.82,1.58,7.331,7.331,0,0,1-3.6-.82,6.868,6.868,0,0,1-2.4-2.18,9.459,9.459,0,0,1-1.34-3.06,14.539,14.539,0,0,1-.42-3.5,15.628,15.628,0,0,1,.42-3.64,9.64,9.64,0,0,1,1.34-3.14,6.8,6.8,0,0,1,2.4-2.2,7.331,7.331,0,0,1,3.6-.82,6.282,6.282,0,0,1,3.88,1.2,6.009,6.009,0,0,1,2.16,3.6h6a10.661,10.661,0,0,0-1.32-4.32,10.625,10.625,0,0,0-2.74-3.16,12.07,12.07,0,0,0-3.72-1.94,13.877,13.877,0,0,0-4.26-.66,14.426,14.426,0,0,0-5.9,1.16,12.619,12.619,0,0,0-4.42,3.2,14.268,14.268,0,0,0-2.76,4.78,17.846,17.846,0,0,0-.96,5.94,17.25,17.25,0,0,0,.96,5.82,13.9,13.9,0,0,0,2.76,4.7A12.642,12.642,0,0,0,264.46-.5a14.645,14.645,0,0,0,5.9,1.14,10.523,10.523,0,0,0,4.12-.86A9.412,9.412,0,0,0,278.2-3.24Zm10.52-25.32V0H310.4V-5.28H295v-7h13.84v-4.88H295v-6.12h15.08v-5.28Z" transform="translate(48 87)" fill="#47484b"/><g transform="translate(-1011.5 35)"><g transform="translate(-3707.5 -8066)"><g transform="translate(4767.147 8175.055)" fill="#096d0c" stroke="#096d0c" stroke-width="1"><rect width="174.52" height="58.297" rx="8" stroke="none"/><rect x="0.5" y="0.5" width="173.52" height="57.297" rx="7.5" fill="none"/></g><path d="M37.759,27.727H28.513L26.755,33H21.147L30.675,7.406h4.887L45.142,33H39.534Zm-7.822-4.271h6.4l-3.217-9.58Zm37.318,1.02a9.057,9.057,0,0,1-3.05,6.5,10.711,10.711,0,0,1-7.251,2.373,9.631,9.631,0,0,1-7.743-3.313q-2.821-3.313-2.821-9.1V19.377a15.342,15.342,0,0,1,1.3-6.5,9.748,9.748,0,0,1,3.718-4.315,10.414,10.414,0,0,1,5.616-1.5,10.434,10.434,0,0,1,7.137,2.373A9.733,9.733,0,0,1,67.29,16.09H62.017a5.345,5.345,0,0,0-1.38-3.595,5.11,5.11,0,0,0-3.612-1.116,4.481,4.481,0,0,0-3.946,1.89q-1.31,1.89-1.345,5.862v1.934q0,4.148,1.257,6.064a4.4,4.4,0,0,0,3.964,1.916A5.206,5.206,0,0,0,60.6,27.929a5.042,5.042,0,0,0,1.38-3.454Zm22.219-12.8h-7.84V33H76.36V11.678H68.626V7.406H89.474ZM98.087,33H92.813V7.406h5.273Zm14.344-6.346,5.8-19.248H124.1L115.19,33h-5.5L100.812,7.406h5.854Zm29.479-4.746H131.784v6.855h11.883V33H126.511V7.406h17.121v4.271H131.784v6.1h10.125Z" transform="translate(4772 8184)" fill="#fff" stroke="rgba(0,0,0,0)" stroke-width="1"/></g><g transform="translate(-3707.5 -7982)"><g transform="translate(4766.983 8175.055)" fill="#cecece" stroke="#cecece" stroke-width="1"><rect width="175.498" height="58.297" rx="8" stroke="none"/><rect x="0.5" y="0.5" width="174.498" height="57.297" rx="7.5" fill="none"/></g><path d="M38.849,24.475a9.057,9.057,0,0,1-3.05,6.5,10.711,10.711,0,0,1-7.251,2.373A9.631,9.631,0,0,1,20.8,30.038q-2.821-3.313-2.821-9.1V19.377a15.342,15.342,0,0,1,1.3-6.5A9.748,9.748,0,0,1,23,8.558a10.414,10.414,0,0,1,5.616-1.5,10.434,10.434,0,0,1,7.137,2.373,9.733,9.733,0,0,1,3.129,6.662H33.61A5.345,5.345,0,0,0,32.23,12.5a5.11,5.11,0,0,0-3.612-1.116,4.481,4.481,0,0,0-3.946,1.89q-1.31,1.89-1.345,5.862v1.934q0,4.148,1.257,6.064a4.4,4.4,0,0,0,3.964,1.916A5.206,5.206,0,0,0,32.2,27.929a5.042,5.042,0,0,0,1.38-3.454Zm8.736,4.289h11.2V33H42.312V7.406h5.273ZM81.7,20.783a15.45,15.45,0,0,1-1.336,6.627A10.061,10.061,0,0,1,76.545,31.8a11.3,11.3,0,0,1-11.382.018A10.16,10.16,0,0,1,61.3,27.454a15.008,15.008,0,0,1-1.389-6.53V19.658A15.369,15.369,0,0,1,61.27,13a10.143,10.143,0,0,1,3.85-4.412,11.281,11.281,0,0,1,11.373,0A10.143,10.143,0,0,1,80.342,13,15.326,15.326,0,0,1,81.7,19.641Zm-5.344-1.16a10.77,10.77,0,0,0-1.441-6.117,5.092,5.092,0,0,0-8.209-.026,10.647,10.647,0,0,0-1.459,6.056v1.248a10.905,10.905,0,0,0,1.441,6.082,5.047,5.047,0,0,0,8.227.079,10.842,10.842,0,0,0,1.441-6.073Zm22.447,6.662a2.706,2.706,0,0,0-1.055-2.294,13.834,13.834,0,0,0-3.8-1.687,26.916,26.916,0,0,1-4.342-1.749q-4.359-2.355-4.359-6.346a6.18,6.18,0,0,1,1.169-3.7,7.625,7.625,0,0,1,3.357-2.54,12.637,12.637,0,0,1,4.913-.914,11.5,11.5,0,0,1,4.887.993,7.781,7.781,0,0,1,3.331,2.8,7.336,7.336,0,0,1,1.187,4.113H98.825a3.451,3.451,0,0,0-1.107-2.733,4.552,4.552,0,0,0-3.111-.976,4.864,4.864,0,0,0-3.006.817,2.578,2.578,0,0,0-1.072,2.153,2.469,2.469,0,0,0,1.257,2.092,14.2,14.2,0,0,0,3.7,1.582,15.987,15.987,0,0,1,6.557,3.357A6.686,6.686,0,0,1,104.1,26.25a6.159,6.159,0,0,1-2.514,5.212,11,11,0,0,1-6.768,1.89,13.068,13.068,0,0,1-5.379-1.081,8.512,8.512,0,0,1-3.7-2.962,7.585,7.585,0,0,1-1.274-4.359h5.291q0,4.236,5.063,4.236a4.925,4.925,0,0,0,2.936-.765A2.488,2.488,0,0,0,98.808,26.285Zm24.258-4.377H112.94v6.855h11.883V33H107.667V7.406h17.121v4.271H112.94v6.1h10.125ZM127.917,33V7.406h7.875a11.959,11.959,0,0,1,6.038,1.521,10.6,10.6,0,0,1,4.157,4.324,13.337,13.337,0,0,1,1.494,6.372V20.8a13.375,13.375,0,0,1-1.468,6.346,10.512,10.512,0,0,1-4.14,4.307A12.049,12.049,0,0,1,135.845,33Zm5.273-21.322V28.764h2.549a5.727,5.727,0,0,0,4.729-2.021,9.135,9.135,0,0,0,1.67-5.783V19.605a9.28,9.28,0,0,0-1.617-5.915,5.707,5.707,0,0,0-4.729-2.013Z" transform="translate(4772 8184)" stroke="rgba(0,0,0,0)" stroke-width="1"/></g><g transform="translate(-3707.537 -7899.602)"><g transform="translate(4767.021 8175.055)" fill="#cf3a3f" stroke="#cf3a3f" stroke-width="1"><rect width="174.988" height="58.297" rx="8" stroke="none"/><rect x="0.5" y="0.5" width="173.988" height="57.297" rx="7.5" fill="none"/></g><path d="M-39.331-11.092H-49.456v6.855h11.883V0H-54.729V-25.594h17.121v4.271H-49.456v6.1h10.125ZM-25-9.369h-4.2V0h-5.273V-25.594h9.51q4.535,0,7,2.021a6.977,6.977,0,0,1,2.461,5.713,7.874,7.874,0,0,1-1.134,4.368,7.733,7.733,0,0,1-3.437,2.786L-14.546-.246V0h-5.66Zm-4.2-4.271h4.254a4.355,4.355,0,0,0,3.076-1.011,3.613,3.613,0,0,0,1.09-2.786,3.867,3.867,0,0,0-1.028-2.848,4.273,4.273,0,0,0-3.155-1.037h-4.236ZM-2.03-9.369h-4.2V0H-11.5V-25.594H-2q4.535,0,7,2.021a6.977,6.977,0,0,1,2.461,5.713,7.874,7.874,0,0,1-1.134,4.368,7.733,7.733,0,0,1-3.437,2.786L8.429-.246V0H2.769Zm-4.2-4.271h4.254A4.355,4.355,0,0,0,1.1-14.651a3.613,3.613,0,0,0,1.09-2.786A3.867,3.867,0,0,0,1.16-20.285,4.273,4.273,0,0,0-2-21.322H-6.231Zm38.725,1.424A15.45,15.45,0,0,1,31.157-5.59,10.061,10.061,0,0,1,27.334-1.2,10.576,10.576,0,0,1,21.63.352a10.648,10.648,0,0,1-5.678-1.529,10.16,10.16,0,0,1-3.867-4.368,15.008,15.008,0,0,1-1.389-6.53v-1.266A15.369,15.369,0,0,1,12.059-20a10.143,10.143,0,0,1,3.85-4.412,10.589,10.589,0,0,1,5.687-1.538,10.589,10.589,0,0,1,5.687,1.538A10.143,10.143,0,0,1,31.131-20a15.326,15.326,0,0,1,1.362,6.636Zm-5.344-1.16a10.77,10.77,0,0,0-1.441-6.117,4.7,4.7,0,0,0-4.113-2.092,4.7,4.7,0,0,0-4.1,2.065,10.647,10.647,0,0,0-1.459,6.056v1.248a10.905,10.905,0,0,0,1.441,6.082A4.685,4.685,0,0,0,21.63-3.973a4.643,4.643,0,0,0,4.078-2.083,10.842,10.842,0,0,0,1.441-6.073ZM45.8-9.369H41.6V0H36.325V-25.594h9.51q4.535,0,7,2.021a6.977,6.977,0,0,1,2.461,5.713,7.874,7.874,0,0,1-1.134,4.368,7.733,7.733,0,0,1-3.437,2.786L56.259-.246V0H50.6Zm-4.2-4.271h4.254a4.355,4.355,0,0,0,3.076-1.011,3.613,3.613,0,0,0,1.09-2.786,3.867,3.867,0,0,0-1.028-2.848,4.273,4.273,0,0,0-3.155-1.037H41.6Z" transform="translate(4853.75 8217)" fill="#fff" stroke="rgba(0,0,0,0)" stroke-width="1"/></g></g></g><g transform="translate(39 418)"><path d="M7.04-9.48H.96a9.432,9.432,0,0,0,.96,4.56,8.99,8.99,0,0,0,2.7,3.16A11.519,11.519,0,0,0,8.54.06a18.044,18.044,0,0,0,4.58.58,17.585,17.585,0,0,0,5.14-.68,10.869,10.869,0,0,0,3.72-1.9,7.908,7.908,0,0,0,2.26-2.9A8.727,8.727,0,0,0,25-8.48a7,7,0,0,0-1.02-3.94,8.52,8.52,0,0,0-2.42-2.46,10.638,10.638,0,0,0-2.82-1.34q-1.42-.42-2.22-.58-2.68-.68-4.34-1.12a16.1,16.1,0,0,1-2.6-.88,2.856,2.856,0,0,1-1.26-.96A2.567,2.567,0,0,1,8-21.12a2.685,2.685,0,0,1,.4-1.52,3.474,3.474,0,0,1,1.02-1,4.066,4.066,0,0,1,1.38-.56,7.36,7.36,0,0,1,1.52-.16,10.712,10.712,0,0,1,2.14.2,5.158,5.158,0,0,1,1.74.68,3.534,3.534,0,0,1,1.22,1.32,5.05,5.05,0,0,1,.54,2.12h6.08a8.771,8.771,0,0,0-.94-4.22,8.2,8.2,0,0,0-2.54-2.86,10.725,10.725,0,0,0-3.66-1.62,18.169,18.169,0,0,0-4.3-.5,14.633,14.633,0,0,0-3.84.52,10.721,10.721,0,0,0-3.44,1.6,8.517,8.517,0,0,0-2.46,2.7,7.478,7.478,0,0,0-.94,3.82,6.983,6.983,0,0,0,.74,3.34,7.064,7.064,0,0,0,1.94,2.3,10.72,10.72,0,0,0,2.72,1.5,27.348,27.348,0,0,0,3.12.98q1.56.44,3.08.8a19.363,19.363,0,0,1,2.72.84,5.869,5.869,0,0,1,1.94,1.2,2.506,2.506,0,0,1,.74,1.88,2.76,2.76,0,0,1-.56,1.78,3.927,3.927,0,0,1-1.4,1.1,6.263,6.263,0,0,1-1.8.54,12.511,12.511,0,0,1-1.8.14,9.547,9.547,0,0,1-2.4-.3,5.974,5.974,0,0,1-2.02-.92A4.544,4.544,0,0,1,7.56-7.04,5.238,5.238,0,0,1,7.04-9.48Zm29.88-1.64V0H43.2V-10.96l10.6-17.6h-7L40.16-17.28,33.48-28.56H26.44ZM61.28-9.48H55.2a9.432,9.432,0,0,0,.96,4.56,8.99,8.99,0,0,0,2.7,3.16A11.519,11.519,0,0,0,62.78.06a18.044,18.044,0,0,0,4.58.58A17.585,17.585,0,0,0,72.5-.04a10.869,10.869,0,0,0,3.72-1.9,7.908,7.908,0,0,0,2.26-2.9,8.727,8.727,0,0,0,.76-3.64,7,7,0,0,0-1.02-3.94,8.52,8.52,0,0,0-2.42-2.46,10.638,10.638,0,0,0-2.82-1.34q-1.42-.42-2.22-.58-2.68-.68-4.34-1.12a16.1,16.1,0,0,1-2.6-.88,2.856,2.856,0,0,1-1.26-.96,2.567,2.567,0,0,1-.32-1.36,2.685,2.685,0,0,1,.4-1.52,3.474,3.474,0,0,1,1.02-1,4.066,4.066,0,0,1,1.38-.56,7.36,7.36,0,0,1,1.52-.16,10.712,10.712,0,0,1,2.14.2,5.158,5.158,0,0,1,1.74.68,3.534,3.534,0,0,1,1.22,1.32,5.05,5.05,0,0,1,.54,2.12h6.08a8.771,8.771,0,0,0-.94-4.22,8.2,8.2,0,0,0-2.54-2.86,10.725,10.725,0,0,0-3.66-1.62,18.169,18.169,0,0,0-4.3-.5,14.633,14.633,0,0,0-3.84.52,10.721,10.721,0,0,0-3.44,1.6,8.517,8.517,0,0,0-2.46,2.7,7.478,7.478,0,0,0-.94,3.82,6.983,6.983,0,0,0,.74,3.34,7.064,7.064,0,0,0,1.94,2.3,10.72,10.72,0,0,0,2.72,1.5,27.348,27.348,0,0,0,3.12.98q1.56.44,3.08.8a19.363,19.363,0,0,1,2.72.84,5.869,5.869,0,0,1,1.94,1.2,2.506,2.506,0,0,1,.74,1.88,2.76,2.76,0,0,1-.56,1.78,3.927,3.927,0,0,1-1.4,1.1,6.263,6.263,0,0,1-1.8.54,12.511,12.511,0,0,1-1.8.14,9.547,9.547,0,0,1-2.4-.3,5.974,5.974,0,0,1-2.02-.92A4.544,4.544,0,0,1,61.8-7.04,5.238,5.238,0,0,1,61.28-9.48Zm28.8-13.8V0h6.28V-23.28h8.56v-5.28H81.52v5.28ZM109-28.56V0h21.68V-5.28h-15.4v-7h13.84v-4.88H115.28v-6.12h15.08v-5.28Zm26.72,0V0h5.88V-20.04h.08l7,20.04h4.84l7-20.24h.08V0h5.88V-28.56h-8.84L151.32-8.92h-.08l-6.68-19.64ZM189-9.48h-6.08a9.432,9.432,0,0,0,.96,4.56,8.99,8.99,0,0,0,2.7,3.16A11.52,11.52,0,0,0,190.5.06a18.044,18.044,0,0,0,4.58.58,17.585,17.585,0,0,0,5.14-.68,10.869,10.869,0,0,0,3.72-1.9,7.908,7.908,0,0,0,2.26-2.9,8.727,8.727,0,0,0,.76-3.64,7,7,0,0,0-1.02-3.94,8.52,8.52,0,0,0-2.42-2.46,10.638,10.638,0,0,0-2.82-1.34q-1.42-.42-2.22-.58-2.68-.68-4.34-1.12a16.1,16.1,0,0,1-2.6-.88,2.856,2.856,0,0,1-1.26-.96,2.567,2.567,0,0,1-.32-1.36,2.685,2.685,0,0,1,.4-1.52,3.474,3.474,0,0,1,1.02-1,4.066,4.066,0,0,1,1.38-.56,7.36,7.36,0,0,1,1.52-.16,10.712,10.712,0,0,1,2.14.2,5.158,5.158,0,0,1,1.74.68,3.534,3.534,0,0,1,1.22,1.32,5.05,5.05,0,0,1,.54,2.12H206a8.771,8.771,0,0,0-.94-4.22,8.2,8.2,0,0,0-2.54-2.86,10.725,10.725,0,0,0-3.66-1.62,18.17,18.17,0,0,0-4.3-.5,14.633,14.633,0,0,0-3.84.52,10.72,10.72,0,0,0-3.44,1.6,8.517,8.517,0,0,0-2.46,2.7,7.478,7.478,0,0,0-.94,3.82,6.983,6.983,0,0,0,.74,3.34,7.064,7.064,0,0,0,1.94,2.3,10.72,10.72,0,0,0,2.72,1.5,27.349,27.349,0,0,0,3.12.98q1.56.44,3.08.8a19.363,19.363,0,0,1,2.72.84,5.869,5.869,0,0,1,1.94,1.2,2.506,2.506,0,0,1,.74,1.88,2.76,2.76,0,0,1-.56,1.78,3.927,3.927,0,0,1-1.4,1.1,6.263,6.263,0,0,1-1.8.54,12.511,12.511,0,0,1-1.8.14,9.547,9.547,0,0,1-2.4-.3,5.974,5.974,0,0,1-2.02-.92,4.544,4.544,0,0,1-1.38-1.62A5.238,5.238,0,0,1,189-9.48Zm28.8-13.8V0h6.28V-23.28h8.56v-5.28h-23.4v5.28Zm22.44,12.24,3.72-10.48h.08l3.6,10.48Zm.6-17.52L230.04,0h6.32l2.24-6.36h10.68L251.44,0h6.52L247.28-28.56Zm23.04,5.28V0h6.28V-23.28h8.56v-5.28h-23.4v5.28ZM307.04-10.8V-28.56h-6.28V-10.8a7.146,7.146,0,0,1-1.28,4.7q-1.28,1.5-4.64,1.5a7.234,7.234,0,0,1-3.06-.54A4.636,4.636,0,0,1,290-6.54a4.628,4.628,0,0,1-.84-1.98,12.945,12.945,0,0,1-.2-2.28V-28.56h-6.28V-10.8q0,5.84,3.18,8.64t8.98,2.8q5.72,0,8.96-2.82T307.04-10.8Zm10.48,1.32h-6.08a9.433,9.433,0,0,0,.96,4.56,8.99,8.99,0,0,0,2.7,3.16A11.519,11.519,0,0,0,319.02.06a18.044,18.044,0,0,0,4.58.58,17.585,17.585,0,0,0,5.14-.68,10.869,10.869,0,0,0,3.72-1.9,7.908,7.908,0,0,0,2.26-2.9,8.727,8.727,0,0,0,.76-3.64,7,7,0,0,0-1.02-3.94,8.52,8.52,0,0,0-2.42-2.46,10.638,10.638,0,0,0-2.82-1.34q-1.42-.42-2.22-.58-2.68-.68-4.34-1.12a16.1,16.1,0,0,1-2.6-.88,2.856,2.856,0,0,1-1.26-.96,2.567,2.567,0,0,1-.32-1.36,2.685,2.685,0,0,1,.4-1.52,3.474,3.474,0,0,1,1.02-1,4.066,4.066,0,0,1,1.38-.56,7.36,7.36,0,0,1,1.52-.16,10.711,10.711,0,0,1,2.14.2,5.158,5.158,0,0,1,1.74.68,3.534,3.534,0,0,1,1.22,1.32,5.049,5.049,0,0,1,.54,2.12h6.08a8.771,8.771,0,0,0-.94-4.22,8.2,8.2,0,0,0-2.54-2.86,10.725,10.725,0,0,0-3.66-1.62,18.169,18.169,0,0,0-4.3-.5,14.633,14.633,0,0,0-3.84.52,10.721,10.721,0,0,0-3.44,1.6,8.517,8.517,0,0,0-2.46,2.7,7.478,7.478,0,0,0-.94,3.82,6.984,6.984,0,0,0,.74,3.34,7.064,7.064,0,0,0,1.94,2.3,10.72,10.72,0,0,0,2.72,1.5,27.348,27.348,0,0,0,3.12.98q1.56.44,3.08.8a19.362,19.362,0,0,1,2.72.84,5.869,5.869,0,0,1,1.94,1.2,2.506,2.506,0,0,1,.74,1.88,2.76,2.76,0,0,1-.56,1.78,3.927,3.927,0,0,1-1.4,1.1,6.263,6.263,0,0,1-1.8.54,12.51,12.51,0,0,1-1.8.14,9.547,9.547,0,0,1-2.4-.3,5.974,5.974,0,0,1-2.02-.92,4.544,4.544,0,0,1-1.38-1.62A5.238,5.238,0,0,1,317.52-9.48Z" transform="translate(48 87)" fill="#47484b"/><g transform="translate(-1011.5 35)"><g transform="translate(1059.5 109)"><g fill="#ffc0c6" stroke="#cf3a3f" stroke-width="1"><rect width="787" height="79" stroke="none"/><rect x="0.5" y="0.5" width="786" height="78" fill="none"/></g><path d="M20.654,10.184H12.428V33H9.07V10.184H.861V7.406H20.654Zm6.539,6.1a6.914,6.914,0,0,1,5.625-2.654q6.029,0,6.082,6.8V33H35.648V20.414a4.378,4.378,0,0,0-.94-3.041,3.769,3.769,0,0,0-2.874-.984,4.693,4.693,0,0,0-2.777.844,5.73,5.73,0,0,0-1.863,2.215V33H23.941V6h3.252ZM47.3,33H44.051V13.98H47.3ZM43.787,8.936A1.941,1.941,0,0,1,44.271,7.6,1.815,1.815,0,0,1,45.7,7.055a1.843,1.843,0,0,1,1.441.545,1.921,1.921,0,0,1,.492,1.336,1.857,1.857,0,0,1-.492,1.318,1.877,1.877,0,0,1-1.441.527,1.848,1.848,0,0,1-1.433-.527A1.877,1.877,0,0,1,43.787,8.936ZM63.58,27.955a2.394,2.394,0,0,0-.993-2.048,9.56,9.56,0,0,0-3.463-1.257,16.372,16.372,0,0,1-3.92-1.266,5.577,5.577,0,0,1-2.145-1.758,4.2,4.2,0,0,1-.694-2.426,4.934,4.934,0,0,1,1.978-3.955A7.723,7.723,0,0,1,59.4,13.629a7.947,7.947,0,0,1,5.247,1.67,5.3,5.3,0,0,1,2.013,4.271h-3.27a2.936,2.936,0,0,0-1.134-2.3A4.248,4.248,0,0,0,59.4,16.3a4.446,4.446,0,0,0-2.777.773,2.435,2.435,0,0,0-1,2.021,1.973,1.973,0,0,0,.932,1.775,11.463,11.463,0,0,0,3.366,1.143,17.54,17.54,0,0,1,3.946,1.3A5.756,5.756,0,0,1,66.1,25.134a4.473,4.473,0,0,1,.729,2.593,4.868,4.868,0,0,1-2.039,4.087A8.553,8.553,0,0,1,59.5,33.352a9.578,9.578,0,0,1-4.043-.809,6.576,6.576,0,0,1-2.751-2.259,5.444,5.444,0,0,1-.993-3.138h3.252a3.367,3.367,0,0,0,1.31,2.593A5.08,5.08,0,0,0,59.5,30.7a5.244,5.244,0,0,0,2.962-.747A2.3,2.3,0,0,0,63.58,27.955ZM83.514,33H80.262V13.98h3.252ZM80,8.936A1.941,1.941,0,0,1,80.481,7.6a1.815,1.815,0,0,1,1.433-.545,1.843,1.843,0,0,1,1.441.545,1.921,1.921,0,0,1,.492,1.336,1.857,1.857,0,0,1-.492,1.318,1.877,1.877,0,0,1-1.441.527,1.848,1.848,0,0,1-1.433-.527A1.877,1.877,0,0,1,80,8.936Zm19.793,19.02a2.394,2.394,0,0,0-.993-2.048,9.56,9.56,0,0,0-3.463-1.257,16.372,16.372,0,0,1-3.92-1.266,5.577,5.577,0,0,1-2.145-1.758,4.2,4.2,0,0,1-.694-2.426,4.934,4.934,0,0,1,1.978-3.955,7.723,7.723,0,0,1,5.054-1.617,7.947,7.947,0,0,1,5.247,1.67,5.3,5.3,0,0,1,2.013,4.271H99.6a2.936,2.936,0,0,0-1.134-2.3,4.248,4.248,0,0,0-2.856-.967,4.446,4.446,0,0,0-2.777.773,2.435,2.435,0,0,0-1,2.021,1.973,1.973,0,0,0,.932,1.775,11.463,11.463,0,0,0,3.366,1.143,17.54,17.54,0,0,1,3.946,1.3,5.756,5.756,0,0,1,2.241,1.819,4.473,4.473,0,0,1,.729,2.593A4.868,4.868,0,0,1,101,31.813a8.553,8.553,0,0,1-5.291,1.538,9.578,9.578,0,0,1-4.043-.809,6.576,6.576,0,0,1-2.751-2.259,5.444,5.444,0,0,1-.993-3.138h3.252a3.367,3.367,0,0,0,1.31,2.593,5.08,5.08,0,0,0,3.226.958,5.244,5.244,0,0,0,2.962-.747A2.3,2.3,0,0,0,99.791,27.955ZM127.934,33a6.831,6.831,0,0,1-.457-2,7.256,7.256,0,0,1-5.414,2.355,6.714,6.714,0,0,1-4.614-1.591,5.147,5.147,0,0,1-1.8-4.034,5.377,5.377,0,0,1,2.259-4.614,10.65,10.65,0,0,1,6.354-1.644h3.164V19.975a3.652,3.652,0,0,0-1.02-2.716,4.1,4.1,0,0,0-3.006-1.011,4.742,4.742,0,0,0-2.918.879,2.59,2.59,0,0,0-1.178,2.127h-3.27a4.488,4.488,0,0,1,1.011-2.751,6.9,6.9,0,0,1,2.742-2.1,9.225,9.225,0,0,1,3.806-.773,7.519,7.519,0,0,1,5.15,1.644,5.929,5.929,0,0,1,1.934,4.526v8.754a10.7,10.7,0,0,0,.668,4.166V33Zm-5.4-2.479a5.715,5.715,0,0,0,2.9-.791,4.785,4.785,0,0,0,1.986-2.057v-3.9h-2.549q-5.977,0-5.977,3.5a2.96,2.96,0,0,0,1.02,2.391A3.919,3.919,0,0,0,122.537,30.521ZM138.85,13.98l.105,2.391a6.931,6.931,0,0,1,5.7-2.742q6.029,0,6.082,6.8V33H147.48V20.414a4.378,4.378,0,0,0-.94-3.041,3.769,3.769,0,0,0-2.874-.984,4.693,4.693,0,0,0-2.777.844,5.73,5.73,0,0,0-1.863,2.215V33h-3.252V13.98Zm33.592,19.371a8.31,8.31,0,0,1-6.293-2.54,9.427,9.427,0,0,1-2.426-6.794v-.6a11.413,11.413,0,0,1,1.081-5.054,8.433,8.433,0,0,1,3.023-3.48,7.6,7.6,0,0,1,4.21-1.257,7.123,7.123,0,0,1,5.766,2.443q2.057,2.443,2.057,7v1.354H166.975a6.761,6.761,0,0,0,1.644,4.544,5.166,5.166,0,0,0,4,1.731,5.664,5.664,0,0,0,2.918-.7,7.332,7.332,0,0,0,2.092-1.863l1.986,1.547A7.987,7.987,0,0,1,172.441,33.352Zm-.4-17.051a4.338,4.338,0,0,0-3.3,1.433,6.963,6.963,0,0,0-1.652,4.017h9.527V21.5a6.194,6.194,0,0,0-1.336-3.841A4.084,4.084,0,0,0,172.037,16.3Zm20.777.6a9.745,9.745,0,0,0-1.6-.123,4.285,4.285,0,0,0-4.342,2.725V33h-3.252V13.98h3.164l.053,2.2a5.064,5.064,0,0,1,4.535-2.549,3.322,3.322,0,0,1,1.441.246ZM205,16.9a9.745,9.745,0,0,0-1.6-.123,4.285,4.285,0,0,0-4.342,2.725V33H195.8V13.98h3.164l.053,2.2a5.064,5.064,0,0,1,4.535-2.549,3.322,3.322,0,0,1,1.441.246Zm1.775,6.416a11.234,11.234,0,0,1,1.1-5.027,8.2,8.2,0,0,1,3.059-3.445,8.326,8.326,0,0,1,4.474-1.213,8.021,8.021,0,0,1,6.284,2.689,10.347,10.347,0,0,1,2.4,7.154V23.7a11.332,11.332,0,0,1-1.063,4.983,8.075,8.075,0,0,1-3.041,3.437,8.422,8.422,0,0,1-4.544,1.23,8,8,0,0,1-6.267-2.689,10.3,10.3,0,0,1-2.4-7.119Zm3.27.387a8.137,8.137,0,0,0,1.468,5.08,4.974,4.974,0,0,0,7.866-.026,8.9,8.9,0,0,0,1.459-5.44,8.123,8.123,0,0,0-1.485-5.071A4.722,4.722,0,0,0,215.4,16.3a4.67,4.67,0,0,0-3.885,1.916A8.832,8.832,0,0,0,210.041,23.7Zm27.316-6.8a9.745,9.745,0,0,0-1.6-.123,4.285,4.285,0,0,0-4.342,2.725V33h-3.252V13.98h3.164l.053,2.2a5.064,5.064,0,0,1,4.535-2.549,3.322,3.322,0,0,1,1.441.246ZM261,33a6.831,6.831,0,0,1-.457-2,7.256,7.256,0,0,1-5.414,2.355,6.714,6.714,0,0,1-4.614-1.591,5.147,5.147,0,0,1-1.8-4.034,5.377,5.377,0,0,1,2.259-4.614,10.65,10.65,0,0,1,6.354-1.644h3.164V19.975a3.652,3.652,0,0,0-1.02-2.716,4.1,4.1,0,0,0-3.006-1.011,4.742,4.742,0,0,0-2.918.879,2.59,2.59,0,0,0-1.178,2.127H249.1A4.488,4.488,0,0,1,250.11,16.5a6.9,6.9,0,0,1,2.742-2.1,9.225,9.225,0,0,1,3.806-.773,7.519,7.519,0,0,1,5.15,1.644,5.929,5.929,0,0,1,1.934,4.526v8.754a10.7,10.7,0,0,0,.668,4.166V33Zm-5.4-2.479a5.715,5.715,0,0,0,2.9-.791,4.785,4.785,0,0,0,1.986-2.057v-3.9h-2.549q-5.977,0-5.977,3.5a2.96,2.96,0,0,0,1.02,2.391A3.919,3.919,0,0,0,255.6,30.521ZM272.373,33h-3.252V6h3.252Zm13.1.352a8.31,8.31,0,0,1-6.293-2.54,9.427,9.427,0,0,1-2.426-6.794v-.6a11.413,11.413,0,0,1,1.081-5.054,8.433,8.433,0,0,1,3.023-3.48,7.6,7.6,0,0,1,4.21-1.257,7.123,7.123,0,0,1,5.766,2.443q2.057,2.443,2.057,7v1.354H280a6.761,6.761,0,0,0,1.644,4.544,5.166,5.166,0,0,0,4,1.731,5.664,5.664,0,0,0,2.918-.7,7.332,7.332,0,0,0,2.092-1.863l1.986,1.547A7.987,7.987,0,0,1,285.469,33.352Zm-.4-17.051a4.338,4.338,0,0,0-3.3,1.433,6.963,6.963,0,0,0-1.652,4.017h9.527V21.5a6.194,6.194,0,0,0-1.336-3.841A4.084,4.084,0,0,0,285.064,16.3Zm20.777.6a9.745,9.745,0,0,0-1.6-.123A4.285,4.285,0,0,0,299.9,19.5V33h-3.252V13.98h3.164l.053,2.2a5.064,5.064,0,0,1,4.535-2.549,3.322,3.322,0,0,1,1.441.246Zm8.279-7.523V13.98h3.551v2.514h-3.551V28.289A2.634,2.634,0,0,0,314.6,30a2,2,0,0,0,1.617.571,7.873,7.873,0,0,0,1.547-.211V33a9.428,9.428,0,0,1-2.5.352,4.05,4.05,0,0,1-3.287-1.318,5.664,5.664,0,0,1-1.107-3.744V16.494h-3.463V13.98h3.463V9.375Zm7.418,21.92a2.036,2.036,0,0,1,.5-1.406,1.909,1.909,0,0,1,1.5-.562,1.966,1.966,0,0,1,1.521.563,2,2,0,0,1,.519,1.406,1.887,1.887,0,0,1-.519,1.354,2,2,0,0,1-1.521.545,1.808,1.808,0,0,1-2-1.9Z" transform="translate(81 21)"/><g transform="translate(779)" fill="#cf3a3f" stroke="#cf3a3f" stroke-width="1"><rect width="8" height="79" stroke="none"/><rect x="0.5" y="0.5" width="7" height="78" fill="none"/></g><g transform="translate(3)" fill="#f9acb4" stroke="#cf3a3f" stroke-width="1"><rect width="54" height="79" stroke="none"/><rect x="0.5" y="0.5" width="53" height="78" fill="none"/></g><g fill="#cf3a3f" stroke="#cf3a3f" stroke-width="1"><rect width="8" height="79" stroke="none"/><rect x="0.5" y="0.5" width="7" height="78" fill="none"/></g><g transform="translate(13 23)"><path d="M0,0H36V36H0Z" fill="none"/><path d="M18,2A16,16,0,1,0,34,18,16.006,16.006,0,0,0,18,2Zm1.6,24H16.4V22.8h3.2Zm0-6.4s-2.4,2.4-3.2,0,0-9.6,0-9.6h3.2Z" fill="#6d0022"/></g></g><g transform="translate(1059.5 204)"><g fill="#ffeaaf" stroke="#e2b333" stroke-width="1"><rect width="787" height="79" stroke="none"/><rect x="0.5" y="0.5" width="786" height="78" fill="none"/></g><path d="M20.654,10.184H12.428V33H9.07V10.184H.861V7.406H20.654Zm6.539,6.1a6.914,6.914,0,0,1,5.625-2.654q6.029,0,6.082,6.8V33H35.648V20.414a4.378,4.378,0,0,0-.94-3.041,3.769,3.769,0,0,0-2.874-.984,4.693,4.693,0,0,0-2.777.844,5.73,5.73,0,0,0-1.863,2.215V33H23.941V6h3.252ZM47.3,33H44.051V13.98H47.3ZM43.787,8.936A1.941,1.941,0,0,1,44.271,7.6,1.815,1.815,0,0,1,45.7,7.055a1.843,1.843,0,0,1,1.441.545,1.921,1.921,0,0,1,.492,1.336,1.857,1.857,0,0,1-.492,1.318,1.877,1.877,0,0,1-1.441.527,1.848,1.848,0,0,1-1.433-.527A1.877,1.877,0,0,1,43.787,8.936ZM63.58,27.955a2.394,2.394,0,0,0-.993-2.048,9.56,9.56,0,0,0-3.463-1.257,16.372,16.372,0,0,1-3.92-1.266,5.577,5.577,0,0,1-2.145-1.758,4.2,4.2,0,0,1-.694-2.426,4.934,4.934,0,0,1,1.978-3.955A7.723,7.723,0,0,1,59.4,13.629a7.947,7.947,0,0,1,5.247,1.67,5.3,5.3,0,0,1,2.013,4.271h-3.27a2.936,2.936,0,0,0-1.134-2.3A4.248,4.248,0,0,0,59.4,16.3a4.446,4.446,0,0,0-2.777.773,2.435,2.435,0,0,0-1,2.021,1.973,1.973,0,0,0,.932,1.775,11.463,11.463,0,0,0,3.366,1.143,17.54,17.54,0,0,1,3.946,1.3A5.756,5.756,0,0,1,66.1,25.134a4.473,4.473,0,0,1,.729,2.593,4.868,4.868,0,0,1-2.039,4.087A8.553,8.553,0,0,1,59.5,33.352a9.578,9.578,0,0,1-4.043-.809,6.576,6.576,0,0,1-2.751-2.259,5.444,5.444,0,0,1-.993-3.138h3.252a3.367,3.367,0,0,0,1.31,2.593A5.08,5.08,0,0,0,59.5,30.7a5.244,5.244,0,0,0,2.962-.747A2.3,2.3,0,0,0,63.58,27.955ZM83.514,33H80.262V13.98h3.252ZM80,8.936A1.941,1.941,0,0,1,80.481,7.6a1.815,1.815,0,0,1,1.433-.545,1.843,1.843,0,0,1,1.441.545,1.921,1.921,0,0,1,.492,1.336,1.857,1.857,0,0,1-.492,1.318,1.877,1.877,0,0,1-1.441.527,1.848,1.848,0,0,1-1.433-.527A1.877,1.877,0,0,1,80,8.936Zm19.793,19.02a2.394,2.394,0,0,0-.993-2.048,9.56,9.56,0,0,0-3.463-1.257,16.372,16.372,0,0,1-3.92-1.266,5.577,5.577,0,0,1-2.145-1.758,4.2,4.2,0,0,1-.694-2.426,4.934,4.934,0,0,1,1.978-3.955,7.723,7.723,0,0,1,5.054-1.617,7.947,7.947,0,0,1,5.247,1.67,5.3,5.3,0,0,1,2.013,4.271H99.6a2.936,2.936,0,0,0-1.134-2.3,4.248,4.248,0,0,0-2.856-.967,4.446,4.446,0,0,0-2.777.773,2.435,2.435,0,0,0-1,2.021,1.973,1.973,0,0,0,.932,1.775,11.463,11.463,0,0,0,3.366,1.143,17.54,17.54,0,0,1,3.946,1.3,5.756,5.756,0,0,1,2.241,1.819,4.473,4.473,0,0,1,.729,2.593A4.868,4.868,0,0,1,101,31.813a8.553,8.553,0,0,1-5.291,1.538,9.578,9.578,0,0,1-4.043-.809,6.576,6.576,0,0,1-2.751-2.259,5.444,5.444,0,0,1-.993-3.138h3.252a3.367,3.367,0,0,0,1.31,2.593,5.08,5.08,0,0,0,3.226.958,5.244,5.244,0,0,0,2.962-.747A2.3,2.3,0,0,0,99.791,27.955ZM127.934,33a6.831,6.831,0,0,1-.457-2,7.256,7.256,0,0,1-5.414,2.355,6.714,6.714,0,0,1-4.614-1.591,5.147,5.147,0,0,1-1.8-4.034,5.377,5.377,0,0,1,2.259-4.614,10.65,10.65,0,0,1,6.354-1.644h3.164V19.975a3.652,3.652,0,0,0-1.02-2.716,4.1,4.1,0,0,0-3.006-1.011,4.742,4.742,0,0,0-2.918.879,2.59,2.59,0,0,0-1.178,2.127h-3.27a4.488,4.488,0,0,1,1.011-2.751,6.9,6.9,0,0,1,2.742-2.1,9.225,9.225,0,0,1,3.806-.773,7.519,7.519,0,0,1,5.15,1.644,5.929,5.929,0,0,1,1.934,4.526v8.754a10.7,10.7,0,0,0,.668,4.166V33Zm-5.4-2.479a5.715,5.715,0,0,0,2.9-.791,4.785,4.785,0,0,0,1.986-2.057v-3.9h-2.549q-5.977,0-5.977,3.5a2.96,2.96,0,0,0,1.02,2.391A3.919,3.919,0,0,0,122.537,30.521Zm38.988-2,3.656-14.537h3.252L162.9,33H160.26l-4.623-14.414L151.137,33H148.5l-5.52-19.02h3.234l3.744,14.238,4.43-14.238h2.619ZM183.48,33a6.831,6.831,0,0,1-.457-2,7.256,7.256,0,0,1-5.414,2.355A6.714,6.714,0,0,1,173,31.761a5.147,5.147,0,0,1-1.8-4.034,5.377,5.377,0,0,1,2.259-4.614,10.65,10.65,0,0,1,6.354-1.644h3.164V19.975a3.652,3.652,0,0,0-1.02-2.716,4.1,4.1,0,0,0-3.006-1.011,4.742,4.742,0,0,0-2.918.879,2.59,2.59,0,0,0-1.178,2.127h-3.27a4.488,4.488,0,0,1,1.011-2.751,6.9,6.9,0,0,1,2.742-2.1,9.225,9.225,0,0,1,3.806-.773,7.519,7.519,0,0,1,5.15,1.644,5.929,5.929,0,0,1,1.934,4.526v8.754a10.7,10.7,0,0,0,.668,4.166V33Zm-5.4-2.479a5.715,5.715,0,0,0,2.9-.791,4.785,4.785,0,0,0,1.986-2.057v-3.9h-2.549q-5.977,0-5.977,3.5a2.96,2.96,0,0,0,1.02,2.391A3.919,3.919,0,0,0,178.084,30.521ZM200.514,16.9a9.745,9.745,0,0,0-1.6-.123,4.285,4.285,0,0,0-4.342,2.725V33H191.32V13.98h3.164l.053,2.2a5.064,5.064,0,0,1,4.535-2.549,3.322,3.322,0,0,1,1.441.246Zm6.064-2.918.105,2.391a6.931,6.931,0,0,1,5.7-2.742q6.029,0,6.082,6.8V33h-3.252V20.414a4.378,4.378,0,0,0-.94-3.041,3.769,3.769,0,0,0-2.874-.984,4.693,4.693,0,0,0-2.777.844,5.73,5.73,0,0,0-1.863,2.215V33H203.5V13.98ZM226.9,33h-3.252V13.98H226.9ZM223.383,8.936a1.941,1.941,0,0,1,.483-1.336,1.815,1.815,0,0,1,1.433-.545,1.843,1.843,0,0,1,1.441.545,1.921,1.921,0,0,1,.492,1.336,1.857,1.857,0,0,1-.492,1.318,1.877,1.877,0,0,1-1.441.527,1.848,1.848,0,0,1-1.433-.527A1.877,1.877,0,0,1,223.383,8.936Zm11.795,5.045.105,2.391a6.931,6.931,0,0,1,5.7-2.742q6.029,0,6.082,6.8V33h-3.252V20.414a4.378,4.378,0,0,0-.94-3.041,3.769,3.769,0,0,0-2.874-.984,4.693,4.693,0,0,0-2.777.844,5.73,5.73,0,0,0-1.863,2.215V33H232.1V13.98Zm16.014,9.352a11.178,11.178,0,0,1,2.057-7.075,7.09,7.09,0,0,1,10.881-.167l.158-2.109h2.971V32.543a7.737,7.737,0,0,1-2.188,5.818,8.076,8.076,0,0,1-5.88,2.127,9.782,9.782,0,0,1-4.025-.879,6.929,6.929,0,0,1-3.006-2.408l1.688-1.951a6.359,6.359,0,0,0,5.115,2.584,4.983,4.983,0,0,0,3.7-1.336,5.106,5.106,0,0,0,1.327-3.762V31.1a6.684,6.684,0,0,1-5.326,2.25,6.5,6.5,0,0,1-5.405-2.689A11.753,11.753,0,0,1,251.191,23.332Zm3.27.369a8.528,8.528,0,0,0,1.318,5.054,4.284,4.284,0,0,0,3.691,1.837,4.764,4.764,0,0,0,4.518-2.795V19.113a4.819,4.819,0,0,0-4.482-2.725,4.322,4.322,0,0,0-3.709,1.846A9.288,9.288,0,0,0,254.461,23.7ZM292.816,33a6.831,6.831,0,0,1-.457-2,7.256,7.256,0,0,1-5.414,2.355,6.714,6.714,0,0,1-4.614-1.591,5.147,5.147,0,0,1-1.8-4.034,5.377,5.377,0,0,1,2.259-4.614,10.65,10.65,0,0,1,6.354-1.644h3.164V19.975a3.652,3.652,0,0,0-1.02-2.716,4.1,4.1,0,0,0-3.006-1.011,4.742,4.742,0,0,0-2.918.879,2.59,2.59,0,0,0-1.178,2.127h-3.27a4.488,4.488,0,0,1,1.011-2.751,6.9,6.9,0,0,1,2.742-2.1,9.225,9.225,0,0,1,3.806-.773,7.519,7.519,0,0,1,5.15,1.644,5.929,5.929,0,0,1,1.934,4.526v8.754a10.7,10.7,0,0,0,.668,4.166V33Zm-5.4-2.479a5.715,5.715,0,0,0,2.9-.791,4.785,4.785,0,0,0,1.986-2.057v-3.9h-2.549q-5.977,0-5.977,3.5a2.96,2.96,0,0,0,1.02,2.391A3.919,3.919,0,0,0,287.42,30.521ZM304.189,33h-3.252V6h3.252Zm13.1.352a8.31,8.31,0,0,1-6.293-2.54,9.427,9.427,0,0,1-2.426-6.794v-.6a11.413,11.413,0,0,1,1.081-5.054,8.433,8.433,0,0,1,3.023-3.48,7.6,7.6,0,0,1,4.21-1.257,7.123,7.123,0,0,1,5.766,2.443q2.057,2.443,2.057,7v1.354H311.818a6.761,6.761,0,0,0,1.644,4.544,5.166,5.166,0,0,0,4,1.731,5.664,5.664,0,0,0,2.918-.7,7.332,7.332,0,0,0,2.092-1.863l1.986,1.547A7.987,7.987,0,0,1,317.285,33.352Zm-.4-17.051a4.338,4.338,0,0,0-3.3,1.433,6.963,6.963,0,0,0-1.652,4.017h9.527V21.5a6.194,6.194,0,0,0-1.336-3.841A4.084,4.084,0,0,0,316.881,16.3Zm20.777.6a9.745,9.745,0,0,0-1.6-.123,4.285,4.285,0,0,0-4.342,2.725V33h-3.252V13.98h3.164l.053,2.2a5.064,5.064,0,0,1,4.535-2.549,3.322,3.322,0,0,1,1.441.246Zm8.279-7.523V13.98h3.551v2.514h-3.551V28.289A2.634,2.634,0,0,0,346.412,30a2,2,0,0,0,1.617.571,7.873,7.873,0,0,0,1.547-.211V33a9.428,9.428,0,0,1-2.5.352,4.05,4.05,0,0,1-3.287-1.318,5.664,5.664,0,0,1-1.107-3.744V16.494h-3.463V13.98h3.463V9.375Zm7.418,21.92a2.036,2.036,0,0,1,.5-1.406,1.909,1.909,0,0,1,1.5-.562,1.966,1.966,0,0,1,1.521.563,2,2,0,0,1,.519,1.406,1.887,1.887,0,0,1-.519,1.354,2,2,0,0,1-1.521.545,1.808,1.808,0,0,1-2-1.9Z" transform="translate(73 20)"/><g transform="translate(779)" fill="#e2b333" stroke="#e2b333" stroke-width="1"><rect width="8" height="79" stroke="none"/><rect x="0.5" y="0.5" width="7" height="78" fill="none"/></g><g transform="translate(3)" fill="#ffe59d" stroke="#e2b333" stroke-width="1"><rect width="54" height="79" stroke="none"/><rect x="0.5" y="0.5" width="53" height="78" fill="none"/></g><g fill="#e2b333" stroke="#e2b333" stroke-width="1"><rect width="8" height="79" stroke="none"/><rect x="0.5" y="0.5" width="7" height="78" fill="none"/></g><g transform="translate(13 22)"><path d="M0,0H36V36H0Z" fill="none"/><path d="M1,33H35L18,2Zm18.545-4.895H16.455V24.842h3.091Zm0-6.526H16.455V15.053h3.091Z" fill="#684e08"/></g><g transform="translate(728 24)"><path d="M0,0H32V32H0Z" fill="none"/><path d="M27,7.216,24.784,5,16,13.784,7.216,5,5,7.216,13.784,16,5,24.784,7.216,27,16,18.216,24.784,27,27,24.784,18.216,16Z" transform="translate(0 0)"/></g></g><g transform="translate(1059.5 299)"><g fill="#e6e6e6"><path d="M 786.5 78.5 L 0.5 78.5 L 0.5 0.5 L 786.5 0.5 L 786.5 78.5 Z" stroke="none"/><path d="M 1 1 L 1 78 L 786 78 L 786 1 L 1 1 M 0 0 L 787 0 L 787 79 L 0 79 L 0 0 Z" stroke="none" fill="#9e9e9e"/></g><path d="M20.654,10.184H12.428V33H9.07V10.184H.861V7.406H20.654Zm6.539,6.1a6.914,6.914,0,0,1,5.625-2.654q6.029,0,6.082,6.8V33H35.648V20.414a4.378,4.378,0,0,0-.94-3.041,3.769,3.769,0,0,0-2.874-.984,4.693,4.693,0,0,0-2.777.844,5.73,5.73,0,0,0-1.863,2.215V33H23.941V6h3.252ZM47.3,33H44.051V13.98H47.3ZM43.787,8.936A1.941,1.941,0,0,1,44.271,7.6,1.815,1.815,0,0,1,45.7,7.055a1.843,1.843,0,0,1,1.441.545,1.921,1.921,0,0,1,.492,1.336,1.857,1.857,0,0,1-.492,1.318,1.877,1.877,0,0,1-1.441.527,1.848,1.848,0,0,1-1.433-.527A1.877,1.877,0,0,1,43.787,8.936ZM63.58,27.955a2.394,2.394,0,0,0-.993-2.048,9.56,9.56,0,0,0-3.463-1.257,16.372,16.372,0,0,1-3.92-1.266,5.577,5.577,0,0,1-2.145-1.758,4.2,4.2,0,0,1-.694-2.426,4.934,4.934,0,0,1,1.978-3.955A7.723,7.723,0,0,1,59.4,13.629a7.947,7.947,0,0,1,5.247,1.67,5.3,5.3,0,0,1,2.013,4.271h-3.27a2.936,2.936,0,0,0-1.134-2.3A4.248,4.248,0,0,0,59.4,16.3a4.446,4.446,0,0,0-2.777.773,2.435,2.435,0,0,0-1,2.021,1.973,1.973,0,0,0,.932,1.775,11.463,11.463,0,0,0,3.366,1.143,17.54,17.54,0,0,1,3.946,1.3A5.756,5.756,0,0,1,66.1,25.134a4.473,4.473,0,0,1,.729,2.593,4.868,4.868,0,0,1-2.039,4.087A8.553,8.553,0,0,1,59.5,33.352a9.578,9.578,0,0,1-4.043-.809,6.576,6.576,0,0,1-2.751-2.259,5.444,5.444,0,0,1-.993-3.138h3.252a3.367,3.367,0,0,0,1.31,2.593A5.08,5.08,0,0,0,59.5,30.7a5.244,5.244,0,0,0,2.962-.747A2.3,2.3,0,0,0,63.58,27.955ZM83.514,33H80.262V13.98h3.252ZM80,8.936A1.941,1.941,0,0,1,80.481,7.6a1.815,1.815,0,0,1,1.433-.545,1.843,1.843,0,0,1,1.441.545,1.921,1.921,0,0,1,.492,1.336,1.857,1.857,0,0,1-.492,1.318,1.877,1.877,0,0,1-1.441.527,1.848,1.848,0,0,1-1.433-.527A1.877,1.877,0,0,1,80,8.936Zm19.793,19.02a2.394,2.394,0,0,0-.993-2.048,9.56,9.56,0,0,0-3.463-1.257,16.372,16.372,0,0,1-3.92-1.266,5.577,5.577,0,0,1-2.145-1.758,4.2,4.2,0,0,1-.694-2.426,4.934,4.934,0,0,1,1.978-3.955,7.723,7.723,0,0,1,5.054-1.617,7.947,7.947,0,0,1,5.247,1.67,5.3,5.3,0,0,1,2.013,4.271H99.6a2.936,2.936,0,0,0-1.134-2.3,4.248,4.248,0,0,0-2.856-.967,4.446,4.446,0,0,0-2.777.773,2.435,2.435,0,0,0-1,2.021,1.973,1.973,0,0,0,.932,1.775,11.463,11.463,0,0,0,3.366,1.143,17.54,17.54,0,0,1,3.946,1.3,5.756,5.756,0,0,1,2.241,1.819,4.473,4.473,0,0,1,.729,2.593A4.868,4.868,0,0,1,101,31.813a8.553,8.553,0,0,1-5.291,1.538,9.578,9.578,0,0,1-4.043-.809,6.576,6.576,0,0,1-2.751-2.259,5.444,5.444,0,0,1-.993-3.138h3.252a3.367,3.367,0,0,0,1.31,2.593,5.08,5.08,0,0,0,3.226.958,5.244,5.244,0,0,0,2.962-.747A2.3,2.3,0,0,0,99.791,27.955ZM127.934,33a6.831,6.831,0,0,1-.457-2,7.256,7.256,0,0,1-5.414,2.355,6.714,6.714,0,0,1-4.614-1.591,5.147,5.147,0,0,1-1.8-4.034,5.377,5.377,0,0,1,2.259-4.614,10.65,10.65,0,0,1,6.354-1.644h3.164V19.975a3.652,3.652,0,0,0-1.02-2.716,4.1,4.1,0,0,0-3.006-1.011,4.742,4.742,0,0,0-2.918.879,2.59,2.59,0,0,0-1.178,2.127h-3.27a4.488,4.488,0,0,1,1.011-2.751,6.9,6.9,0,0,1,2.742-2.1,9.225,9.225,0,0,1,3.806-.773,7.519,7.519,0,0,1,5.15,1.644,5.929,5.929,0,0,1,1.934,4.526v8.754a10.7,10.7,0,0,0,.668,4.166V33Zm-5.4-2.479a5.715,5.715,0,0,0,2.9-.791,4.785,4.785,0,0,0,1.986-2.057v-3.9h-2.549q-5.977,0-5.977,3.5a2.96,2.96,0,0,0,1.02,2.391A3.919,3.919,0,0,0,122.537,30.521ZM138.85,13.98l.105,2.391a6.931,6.931,0,0,1,5.7-2.742q6.029,0,6.082,6.8V33H147.48V20.414a4.378,4.378,0,0,0-.94-3.041,3.769,3.769,0,0,0-2.874-.984,4.693,4.693,0,0,0-2.777.844,5.73,5.73,0,0,0-1.863,2.215V33h-3.252V13.98ZM168.082,33H164.83V13.98h3.252ZM164.566,8.936A1.941,1.941,0,0,1,165.05,7.6a1.815,1.815,0,0,1,1.433-.545,1.843,1.843,0,0,1,1.441.545,1.921,1.921,0,0,1,.492,1.336,1.857,1.857,0,0,1-.492,1.318,1.877,1.877,0,0,1-1.441.527,1.848,1.848,0,0,1-1.433-.527A1.877,1.877,0,0,1,164.566,8.936Zm11.795,5.045.105,2.391a6.931,6.931,0,0,1,5.7-2.742q6.029,0,6.082,6.8V33h-3.252V20.414a4.378,4.378,0,0,0-.94-3.041,3.769,3.769,0,0,0-2.874-.984,4.693,4.693,0,0,0-2.777.844,5.73,5.73,0,0,0-1.863,2.215V33h-3.252V13.98ZM194.748,33V16.494h-3.006V13.98h3.006V12.029A6.477,6.477,0,0,1,196.383,7.3a6.175,6.175,0,0,1,4.623-1.67,8.534,8.534,0,0,1,2.232.3l-.176,2.637a9.34,9.34,0,0,0-1.758-.158,3.178,3.178,0,0,0-2.443.923A3.735,3.735,0,0,0,198,11.977v2h4.061v2.514H198V33Zm10.037-9.686a11.234,11.234,0,0,1,1.1-5.027,8.2,8.2,0,0,1,3.059-3.445,8.326,8.326,0,0,1,4.474-1.213,8.021,8.021,0,0,1,6.284,2.689,10.347,10.347,0,0,1,2.4,7.154V23.7a11.332,11.332,0,0,1-1.063,4.983A8.075,8.075,0,0,1,218,32.121a8.422,8.422,0,0,1-4.544,1.23,8,8,0,0,1-6.267-2.689,10.3,10.3,0,0,1-2.4-7.119Zm3.27.387a8.137,8.137,0,0,0,1.468,5.08,4.974,4.974,0,0,0,7.866-.026,8.9,8.9,0,0,0,1.459-5.44,8.123,8.123,0,0,0-1.485-5.071,4.722,4.722,0,0,0-3.946-1.942,4.67,4.67,0,0,0-3.885,1.916A8.832,8.832,0,0,0,208.055,23.7ZM246.832,33a6.831,6.831,0,0,1-.457-2,7.256,7.256,0,0,1-5.414,2.355,6.714,6.714,0,0,1-4.614-1.591,5.147,5.147,0,0,1-1.8-4.034,5.377,5.377,0,0,1,2.259-4.614,10.65,10.65,0,0,1,6.354-1.644h3.164V19.975a3.652,3.652,0,0,0-1.02-2.716,4.1,4.1,0,0,0-3.006-1.011,4.742,4.742,0,0,0-2.918.879,2.59,2.59,0,0,0-1.178,2.127h-3.27a4.488,4.488,0,0,1,1.011-2.751,6.9,6.9,0,0,1,2.742-2.1,9.225,9.225,0,0,1,3.806-.773,7.519,7.519,0,0,1,5.15,1.644,5.929,5.929,0,0,1,1.934,4.526v8.754a10.7,10.7,0,0,0,.668,4.166V33Zm-5.4-2.479a5.715,5.715,0,0,0,2.9-.791,4.785,4.785,0,0,0,1.986-2.057v-3.9h-2.549q-5.977,0-5.977,3.5a2.96,2.96,0,0,0,1.02,2.391A3.919,3.919,0,0,0,241.436,30.521ZM258.205,33h-3.252V6h3.252Zm13.1.352a8.31,8.31,0,0,1-6.293-2.54,9.427,9.427,0,0,1-2.426-6.794v-.6a11.413,11.413,0,0,1,1.081-5.054,8.433,8.433,0,0,1,3.023-3.48,7.6,7.6,0,0,1,4.21-1.257,7.123,7.123,0,0,1,5.766,2.443q2.057,2.443,2.057,7v1.354H265.834a6.761,6.761,0,0,0,1.644,4.544,5.166,5.166,0,0,0,4,1.731,5.664,5.664,0,0,0,2.918-.7,7.332,7.332,0,0,0,2.092-1.863l1.986,1.547A7.987,7.987,0,0,1,271.3,33.352ZM270.9,16.3a4.338,4.338,0,0,0-3.3,1.433,6.963,6.963,0,0,0-1.652,4.017h9.527V21.5a6.194,6.194,0,0,0-1.336-3.841A4.084,4.084,0,0,0,270.9,16.3Zm20.777.6a9.745,9.745,0,0,0-1.6-.123,4.285,4.285,0,0,0-4.342,2.725V33H282.48V13.98h3.164l.053,2.2a5.064,5.064,0,0,1,4.535-2.549,3.322,3.322,0,0,1,1.441.246Zm8.279-7.523V13.98H303.5v2.514h-3.551V28.289A2.634,2.634,0,0,0,300.428,30a2,2,0,0,0,1.617.571,7.873,7.873,0,0,0,1.547-.211V33a9.428,9.428,0,0,1-2.5.352,4.05,4.05,0,0,1-3.287-1.318,5.664,5.664,0,0,1-1.107-3.744V16.494h-3.463V13.98H296.7V9.375Zm7.418,21.92a2.036,2.036,0,0,1,.5-1.406,1.909,1.909,0,0,1,1.5-.562,1.966,1.966,0,0,1,1.521.563,2,2,0,0,1,.519,1.406,1.887,1.887,0,0,1-.519,1.354,2,2,0,0,1-1.521.545,1.808,1.808,0,0,1-2-1.9Z" transform="translate(81 21)"/><g transform="translate(779)" fill="#9e9e9e" stroke="#9e9e9e" stroke-width="1"><rect width="8" height="79" stroke="none"/><rect x="0.5" y="0.5" width="7" height="78" fill="none"/></g><g transform="translate(3)" fill="#cecece" stroke="#9e9e9e" stroke-width="1"><rect width="54" height="79" stroke="none"/><rect x="0.5" y="0.5" width="53" height="78" fill="none"/></g><g fill="#9e9e9e" stroke="#9e9e9e" stroke-width="1"><rect width="8" height="79" stroke="none"/><rect x="0.5" y="0.5" width="7" height="78" fill="none"/></g><g transform="translate(13 23)"><path d="M0,0H36V36H0Z" fill="none"/><path d="M18,2A16,16,0,1,0,34,18,16.006,16.006,0,0,0,18,2Zm1.6,24H16.4V22.8h3.2Zm0-6.4s-2.4,2.4-3.2,0,0-9.6,0-9.6h3.2Z" fill="#111"/></g><g transform="translate(728 24)"><path d="M0,0H32V32H0Z" fill="none"/><path d="M27,7.216,24.784,5,16,13.784,7.216,5,5,7.216,13.784,16,5,24.784,7.216,27,16,18.216,24.784,27,27,24.784,18.216,16Z" transform="translate(0 0)"/></g></g></g></g><g transform="translate(1001 -457)"><g transform="matrix(1, 0, 0, 1, -1001, 457)" filter="url(#a)"><rect width="626" height="383" rx="12" transform="translate(1086 144)" fill="#fff"/></g><path d="M4,0H622a4,4,0,0,1,4,4V50a0,0,0,0,1,0,0H0a0,0,0,0,1,0,0V4A4,4,0,0,1,4,0Z" transform="translate(85 601)" fill="#1e5476"/><path d="M0,0H626a0,0,0,0,1,0,0V51a4,4,0,0,1-4,4H4a4,4,0,0,1-4-4V0A0,0,0,0,1,0,0Z" transform="translate(85 929)" fill="#e5e5e5"/><line x1="627.3" transform="translate(84 929.204)" fill="none" stroke="#b7b7b7" stroke-miterlimit="10" stroke-width="1"/><path d="M6.482,11.2a1.128,1.128,0,0,0-.439-.956,5.764,5.764,0,0,0-1.582-.7,11.215,11.215,0,0,1-1.809-.729A2.956,2.956,0,0,1,.835,6.17a2.575,2.575,0,0,1,.487-1.542,3.177,3.177,0,0,1,1.4-1.058,5.265,5.265,0,0,1,2.047-.381A4.793,4.793,0,0,1,6.8,3.6,3.242,3.242,0,0,1,8.192,4.771a3.057,3.057,0,0,1,.494,1.714h-2.2a1.438,1.438,0,0,0-.461-1.139,1.9,1.9,0,0,0-1.3-.406,2.026,2.026,0,0,0-1.252.341,1.074,1.074,0,0,0-.447.9,1.029,1.029,0,0,0,.524.872A5.916,5.916,0,0,0,5.1,7.708a6.661,6.661,0,0,1,2.732,1.4,2.786,2.786,0,0,1,.857,2.08,2.566,2.566,0,0,1-1.047,2.172,4.585,4.585,0,0,1-2.82.787,5.445,5.445,0,0,1-2.241-.45,3.546,3.546,0,0,1-1.542-1.234,3.161,3.161,0,0,1-.531-1.816h2.2q0,1.765,2.109,1.765a2.052,2.052,0,0,0,1.223-.319A1.037,1.037,0,0,0,6.482,11.2ZM14.626,14a2.351,2.351,0,0,1-.212-.71,2.561,2.561,0,0,1-2,.857,2.814,2.814,0,0,1-1.93-.674,2.167,2.167,0,0,1-.765-1.7,2.24,2.24,0,0,1,.934-1.934,4.608,4.608,0,0,1,2.7-.681h.974V8.7a1.306,1.306,0,0,0-.282-.879,1.109,1.109,0,0,0-.89-.33,1.261,1.261,0,0,0-.839.256.871.871,0,0,0-.3.7H9.9a2.126,2.126,0,0,1,.425-1.274,2.808,2.808,0,0,1,1.2-.919,4.378,4.378,0,0,1,1.743-.333,3.459,3.459,0,0,1,2.325.736,2.575,2.575,0,0,1,.861,2.069v3.435a3.789,3.789,0,0,0,.315,1.707V14Zm-1.75-1.472a1.823,1.823,0,0,0,.864-.209,1.371,1.371,0,0,0,.586-.56V10.4h-.791q-1.589,0-1.692,1.1l-.007.125a.847.847,0,0,0,.278.652A1.081,1.081,0,0,0,12.876,12.528Zm7.185-6.453.066.886A2.785,2.785,0,0,1,22.4,5.929a2.114,2.114,0,0,1,2.1,1.208,2.721,2.721,0,0,1,2.38-1.208,2.364,2.364,0,0,1,1.919.751,3.451,3.451,0,0,1,.63,2.26V14H27.312V8.946a1.509,1.509,0,0,0-.264-.985,1.169,1.169,0,0,0-.93-.311,1.321,1.321,0,0,0-1.318.908L24.807,14H22.69V8.954a1.491,1.491,0,0,0-.271-1A1.18,1.18,0,0,0,21.5,7.65a1.372,1.372,0,0,0-1.3.747V14H18.076V6.075ZM38.2,10.111a4.753,4.753,0,0,1-.831,2.933,2.665,2.665,0,0,1-2.245,1.1,2.469,2.469,0,0,1-1.941-.835v3.735H31.062V6.075h1.963l.073.776A2.488,2.488,0,0,1,35.1,5.929a2.683,2.683,0,0,1,2.278,1.084A4.882,4.882,0,0,1,38.2,10Zm-2.117-.154a3.119,3.119,0,0,0-.392-1.707,1.276,1.276,0,0,0-1.139-.6,1.386,1.386,0,0,0-1.37.762v3.245a1.41,1.41,0,0,0,1.384.784Q36.079,12.44,36.079,9.957ZM41.741,14H39.617V2.75h2.124Zm5.391.146a3.89,3.89,0,0,1-2.838-1.069A3.8,3.8,0,0,1,43.2,10.228v-.205a4.787,4.787,0,0,1,.461-2.135,3.386,3.386,0,0,1,1.307-1.45,3.669,3.669,0,0,1,1.93-.509,3.289,3.289,0,0,1,2.56,1.025,4.167,4.167,0,0,1,.934,2.908v.864H45.344a1.966,1.966,0,0,0,.619,1.245,1.871,1.871,0,0,0,1.307.469,2.285,2.285,0,0,0,1.912-.886l1.04,1.165a3.178,3.178,0,0,1-1.289,1.051A4.229,4.229,0,0,1,47.131,14.146Zm-.242-6.5a1.326,1.326,0,0,0-1.022.425,2.195,2.195,0,0,0-.5,1.216h2.944V9.115a1.565,1.565,0,0,0-.381-1.088A1.368,1.368,0,0,0,46.89,7.643ZM61,11.2a1.128,1.128,0,0,0-.439-.956,5.764,5.764,0,0,0-1.582-.7,11.215,11.215,0,0,1-1.809-.729A2.956,2.956,0,0,1,55.349,6.17a2.575,2.575,0,0,1,.487-1.542,3.177,3.177,0,0,1,1.4-1.058,5.265,5.265,0,0,1,2.047-.381,4.793,4.793,0,0,1,2.036.414,3.242,3.242,0,0,1,1.388,1.168A3.057,3.057,0,0,1,63.2,6.485H61a1.438,1.438,0,0,0-.461-1.139,1.9,1.9,0,0,0-1.3-.406,2.026,2.026,0,0,0-1.252.341,1.074,1.074,0,0,0-.447.9,1.029,1.029,0,0,0,.524.872,5.916,5.916,0,0,0,1.542.659,6.661,6.661,0,0,1,2.732,1.4,2.786,2.786,0,0,1,.857,2.08,2.566,2.566,0,0,1-1.047,2.172,4.585,4.585,0,0,1-2.82.787,5.445,5.445,0,0,1-2.241-.45,3.546,3.546,0,0,1-1.542-1.234,3.161,3.161,0,0,1-.531-1.816h2.2q0,1.765,2.109,1.765a2.052,2.052,0,0,0,1.223-.319A1.037,1.037,0,0,0,61,11.2Zm6.086-7.075V6.075h1.355V7.628H67.083v3.955a.944.944,0,0,0,.168.63.846.846,0,0,0,.645.19,3.376,3.376,0,0,0,.623-.051v1.6a4.358,4.358,0,0,1-1.282.19A2.021,2.021,0,0,1,64.966,11.9V7.628H63.809V6.075h1.157V4.127ZM74.209,14A2.351,2.351,0,0,1,74,13.29a2.561,2.561,0,0,1-2,.857,2.814,2.814,0,0,1-1.93-.674,2.167,2.167,0,0,1-.765-1.7,2.24,2.24,0,0,1,.934-1.934,4.608,4.608,0,0,1,2.7-.681h.974V8.7a1.306,1.306,0,0,0-.282-.879,1.109,1.109,0,0,0-.89-.33,1.261,1.261,0,0,0-.839.256.871.871,0,0,0-.3.7H69.478A2.126,2.126,0,0,1,69.9,7.181a2.808,2.808,0,0,1,1.2-.919,4.378,4.378,0,0,1,1.743-.333,3.459,3.459,0,0,1,2.325.736,2.575,2.575,0,0,1,.861,2.069v3.435a3.789,3.789,0,0,0,.315,1.707V14Zm-1.75-1.472a1.823,1.823,0,0,0,.864-.209,1.371,1.371,0,0,0,.586-.56V10.4h-.791q-1.589,0-1.692,1.1l-.007.125a.847.847,0,0,0,.278.652A1.081,1.081,0,0,0,72.458,12.528Zm7.148-6.453.066.916a2.767,2.767,0,0,1,2.278-1.062,2.3,2.3,0,0,1,1.875.74,3.451,3.451,0,0,1,.63,2.212V14H82.339V8.932a1.373,1.373,0,0,0-.293-.978,1.312,1.312,0,0,0-.974-.3,1.456,1.456,0,0,0-1.34.762V14H77.615V6.075Zm6.123,3.9a4.776,4.776,0,0,1,.831-2.952,2.7,2.7,0,0,1,2.274-1.1,2.427,2.427,0,0,1,1.912.864V2.75h2.124V14H90.959l-.1-.842a2.491,2.491,0,0,1-2.036.989,2.69,2.69,0,0,1-2.245-1.1A4.93,4.93,0,0,1,85.73,9.979Zm2.117.154a3.12,3.12,0,0,0,.388,1.707,1.265,1.265,0,0,0,1.128.593,1.417,1.417,0,0,0,1.384-.828V8.478a1.4,1.4,0,0,0-1.37-.828Q87.847,7.65,87.847,10.133ZM99.1,14a2.351,2.351,0,0,1-.212-.71,2.561,2.561,0,0,1-2,.857,2.814,2.814,0,0,1-1.93-.674,2.167,2.167,0,0,1-.765-1.7,2.24,2.24,0,0,1,.934-1.934,4.608,4.608,0,0,1,2.7-.681H98.8V8.7a1.306,1.306,0,0,0-.282-.879,1.109,1.109,0,0,0-.89-.33,1.261,1.261,0,0,0-.839.256.871.871,0,0,0-.3.7H94.373A2.126,2.126,0,0,1,94.8,7.181,2.808,2.808,0,0,1,96,6.262a4.378,4.378,0,0,1,1.743-.333,3.459,3.459,0,0,1,2.325.736,2.575,2.575,0,0,1,.861,2.069v3.435a3.789,3.789,0,0,0,.315,1.707V14Zm-1.75-1.472a1.823,1.823,0,0,0,.864-.209,1.371,1.371,0,0,0,.586-.56V10.4h-.791q-1.589,0-1.692,1.1l-.007.125a.847.847,0,0,0,.278.652A1.081,1.081,0,0,0,97.354,12.528Zm9.653-4.468A5.75,5.75,0,0,0,106.245,8a1.55,1.55,0,0,0-1.575.813V14h-2.117V6.075h2l.059.945a1.961,1.961,0,0,1,1.765-1.091,2.218,2.218,0,0,1,.659.1Zm.549,1.919a4.776,4.776,0,0,1,.831-2.952,2.7,2.7,0,0,1,2.274-1.1,2.427,2.427,0,0,1,1.912.864V2.75H114.7V14h-1.912l-.1-.842a2.491,2.491,0,0,1-2.036.989,2.69,2.69,0,0,1-2.245-1.1A4.93,4.93,0,0,1,107.556,9.979Zm2.117.154a3.12,3.12,0,0,0,.388,1.707,1.265,1.265,0,0,0,1.128.593,1.417,1.417,0,0,0,1.384-.828V8.478a1.4,1.4,0,0,0-1.37-.828Q109.673,7.65,109.673,10.133ZM120.212,14V3.336h3.281a4.983,4.983,0,0,1,2.516.634,4.418,4.418,0,0,1,1.732,1.8,5.557,5.557,0,0,1,.623,2.655v.491a5.573,5.573,0,0,1-.612,2.644,4.38,4.38,0,0,1-1.725,1.794,5.021,5.021,0,0,1-2.512.645Zm2.2-8.884v7.119h1.062a2.386,2.386,0,0,0,1.97-.842,3.806,3.806,0,0,0,.7-2.41V8.419a3.867,3.867,0,0,0-.674-2.465,2.378,2.378,0,0,0-1.97-.839ZM132.056,14h-2.124V6.075h2.124Zm-2.249-9.976a1.042,1.042,0,0,1,.319-.784,1.373,1.373,0,0,1,1.732,0,1.036,1.036,0,0,1,.322.784,1.039,1.039,0,0,1-.326.791,1.358,1.358,0,0,1-1.721,0A1.039,1.039,0,0,1,129.807,4.024ZM138.391,14a2.351,2.351,0,0,1-.212-.71,2.561,2.561,0,0,1-2,.857,2.814,2.814,0,0,1-1.93-.674,2.167,2.167,0,0,1-.765-1.7,2.24,2.24,0,0,1,.934-1.934,4.608,4.608,0,0,1,2.7-.681h.974V8.7a1.306,1.306,0,0,0-.282-.879,1.109,1.109,0,0,0-.89-.33,1.261,1.261,0,0,0-.839.256.871.871,0,0,0-.3.7H133.66a2.126,2.126,0,0,1,.425-1.274,2.808,2.808,0,0,1,1.2-.919,4.378,4.378,0,0,1,1.743-.333,3.459,3.459,0,0,1,2.325.736,2.575,2.575,0,0,1,.861,2.069v3.435a3.789,3.789,0,0,0,.315,1.707V14Zm-1.75-1.472a1.823,1.823,0,0,0,.864-.209,1.371,1.371,0,0,0,.586-.56V10.4H137.3q-1.589,0-1.692,1.1l-.007.125a.847.847,0,0,0,.278.652A1.081,1.081,0,0,0,136.641,12.528ZM144.075,14h-2.124V2.75h2.124Zm1.414-4.036a4.7,4.7,0,0,1,.454-2.1,3.324,3.324,0,0,1,1.307-1.428,3.814,3.814,0,0,1,1.981-.505,3.609,3.609,0,0,1,2.618.981,3.939,3.939,0,0,1,1.132,2.666l.015.542a4.142,4.142,0,0,1-1.018,2.926,3.946,3.946,0,0,1-5.468,0,4.215,4.215,0,0,1-1.022-2.988Zm2.117.154a2.954,2.954,0,0,0,.425,1.725,1.528,1.528,0,0,0,2.417.007,3.233,3.233,0,0,0,.432-1.886,2.925,2.925,0,0,0-.432-1.714,1.405,1.405,0,0,0-1.216-.608,1.382,1.382,0,0,0-1.2.6A3.287,3.287,0,0,0,147.6,10.118Zm6.387-.139a4.644,4.644,0,0,1,.868-2.937,2.812,2.812,0,0,1,2.34-1.113,2.466,2.466,0,0,1,2.029.894l.088-.747h1.919v7.661a3.387,3.387,0,0,1-.472,1.809,3.034,3.034,0,0,1-1.329,1.172,4.673,4.673,0,0,1-2.007.4,4.346,4.346,0,0,1-1.7-.348,3.016,3.016,0,0,1-1.252-.9l.938-1.289a2.48,2.48,0,0,0,1.919.886,1.815,1.815,0,0,0,1.311-.45,1.69,1.69,0,0,0,.469-1.278v-.425a2.448,2.448,0,0,1-1.926.828,2.8,2.8,0,0,1-2.311-1.117,4.643,4.643,0,0,1-.883-2.963Zm2.117.154a2.884,2.884,0,0,0,.432,1.688,1.375,1.375,0,0,0,1.187.612,1.47,1.47,0,0,0,1.384-.725V8.375a1.467,1.467,0,0,0-1.37-.725,1.384,1.384,0,0,0-1.2.623A3.251,3.251,0,0,0,156.108,10.133Z" transform="translate(102 618)" fill="#fff"/><g transform="translate(-744 747)" style="isolation:isolate"><rect width="76" height="28" transform="translate(1362 195)" fill="#236185" stroke="#236185" stroke-linejoin="round" stroke-width="4"/></g><g transform="translate(-838 747)" style="isolation:isolate"><rect width="76" height="28" transform="translate(1362 195)" fill="#cecece" stroke="#cecece" stroke-linejoin="round" stroke-width="4"/></g><path d="M25.877,10.683H22.021L21.215,13h-1.8l3.76-9.953h1.552L28.5,13h-1.8Zm-3.37-1.395h2.885L23.949,5.159Zm8.846.014V13H29.623V3.047h3.808a3.853,3.853,0,0,1,2.649.868,2.918,2.918,0,0,1,.981,2.3,2.821,2.821,0,0,1-.96,2.276,4.04,4.04,0,0,1-2.69.813Zm0-1.388h2.078a2.047,2.047,0,0,0,1.408-.434,1.6,1.6,0,0,0,.485-1.254,1.721,1.721,0,0,0-.492-1.289,1.9,1.9,0,0,0-1.354-.5H31.353ZM40.3,9.3V13H38.571V3.047h3.808a3.853,3.853,0,0,1,2.649.868,2.918,2.918,0,0,1,.981,2.3,2.821,2.821,0,0,1-.96,2.276,4.04,4.04,0,0,1-2.69.813Zm0-1.388h2.078a2.047,2.047,0,0,0,1.408-.434,1.6,1.6,0,0,0,.485-1.254,1.721,1.721,0,0,0-.492-1.289,1.9,1.9,0,0,0-1.354-.5H40.3Zm8.948,3.705h4.519V13H47.52V3.047h1.729Zm7.185-3.855,2.29-4.717h1.914L57.3,9.336V13H55.565V9.336L52.223,3.047h1.921Z" transform="translate(616 948)" fill="#fff"/><path d="M27.453,9.76a3.594,3.594,0,0,1-1.176,2.485,4.008,4.008,0,0,1-2.728.892,3.881,3.881,0,0,1-2.1-.564,3.7,3.7,0,0,1-1.4-1.6,5.785,5.785,0,0,1-.513-2.413v-.93a5.827,5.827,0,0,1,.5-2.481,3.761,3.761,0,0,1,1.432-1.654,4,4,0,0,1,2.157-.581,3.838,3.838,0,0,1,2.652.9,3.741,3.741,0,0,1,1.169,2.529H25.73A2.459,2.459,0,0,0,25.1,4.787a2.067,2.067,0,0,0-1.473-.475,2.02,2.02,0,0,0-1.733.824,4.114,4.114,0,0,0-.619,2.417v.882a4.364,4.364,0,0,0,.578,2.461,1.917,1.917,0,0,0,1.692.848,2.236,2.236,0,0,0,1.531-.458A2.388,2.388,0,0,0,25.73,9.76Zm3.274,1.859h4.519V13H29V3.047h1.729ZM44.078,8.283a6.107,6.107,0,0,1-.506,2.567,3.825,3.825,0,0,1-1.446,1.7,4.241,4.241,0,0,1-4.32,0,3.884,3.884,0,0,1-1.463-1.685,5.916,5.916,0,0,1-.523-2.522V7.777a6.054,6.054,0,0,1,.516-2.57A3.879,3.879,0,0,1,37.792,3.5a4.25,4.25,0,0,1,4.313-.007,3.83,3.83,0,0,1,1.453,1.682,6.041,6.041,0,0,1,.52,2.553Zm-1.729-.52a4.351,4.351,0,0,0-.625-2.536,2.207,2.207,0,0,0-3.527,0,4.267,4.267,0,0,0-.646,2.485v.574a4.318,4.318,0,0,0,.639,2.536,2.058,2.058,0,0,0,1.774.9,2.034,2.034,0,0,0,1.767-.875,4.411,4.411,0,0,0,.619-2.557ZM51,10.437a1.2,1.2,0,0,0-.461-1.012,5.552,5.552,0,0,0-1.665-.718A8.038,8.038,0,0,1,46.962,7.9,2.554,2.554,0,0,1,45.6,5.672a2.425,2.425,0,0,1,.981-1.982,3.97,3.97,0,0,1,2.546-.779,4.3,4.3,0,0,1,1.853.383,3.041,3.041,0,0,1,1.278,1.09,2.8,2.8,0,0,1,.465,1.569H51a1.56,1.56,0,0,0-.489-1.22,2.017,2.017,0,0,0-1.4-.441,2.107,2.107,0,0,0-1.316.362,1.206,1.206,0,0,0-.468,1.012,1.091,1.091,0,0,0,.506.913,5.828,5.828,0,0,0,1.668.711,7.672,7.672,0,0,1,1.866.786A2.968,2.968,0,0,1,52.4,9.086a2.635,2.635,0,0,1,.328,1.336,2.369,2.369,0,0,1-.954,1.979,4.136,4.136,0,0,1-2.587.735,4.862,4.862,0,0,1-1.986-.4,3.336,3.336,0,0,1-1.408-1.1,2.751,2.751,0,0,1-.5-1.641h1.729a1.61,1.61,0,0,0,.561,1.313,2.455,2.455,0,0,0,1.606.465,2.133,2.133,0,0,0,1.357-.366A1.18,1.18,0,0,0,51,10.437Zm9.064-1.88H55.979v3.063h4.778V13H54.25V3.047h6.46V4.441h-4.73V7.189h4.088Z" transform="translate(522 948)"/><path d="M18.512,10.389A1.052,1.052,0,0,0,18.1,9.5a5.38,5.38,0,0,0-1.477-.656,10.467,10.467,0,0,1-1.688-.68,2.759,2.759,0,0,1-1.7-2.468A2.4,2.4,0,0,1,13.7,4.253,2.965,2.965,0,0,1,15,3.266a4.914,4.914,0,0,1,1.911-.355,4.473,4.473,0,0,1,1.9.386,3.026,3.026,0,0,1,1.3,1.09,2.853,2.853,0,0,1,.461,1.6H18.519a1.342,1.342,0,0,0-.431-1.063,1.77,1.77,0,0,0-1.21-.379,1.891,1.891,0,0,0-1.169.318,1,1,0,0,0-.417.837.96.96,0,0,0,.489.813,5.522,5.522,0,0,0,1.439.615,6.217,6.217,0,0,1,2.55,1.306,2.6,2.6,0,0,1,.8,1.941,2.4,2.4,0,0,1-.978,2.027,4.279,4.279,0,0,1-2.632.735,5.082,5.082,0,0,1-2.092-.42,3.31,3.31,0,0,1-1.439-1.152,2.95,2.95,0,0,1-.5-1.7h2.058q0,1.647,1.969,1.647a1.915,1.915,0,0,0,1.142-.3A.967.967,0,0,0,18.512,10.389ZM21.52,9.233a4.387,4.387,0,0,1,.424-1.962,3.1,3.1,0,0,1,1.22-1.333,3.56,3.56,0,0,1,1.849-.472,3.368,3.368,0,0,1,2.444.916,3.676,3.676,0,0,1,1.056,2.488l.014.506a3.866,3.866,0,0,1-.95,2.731,3.3,3.3,0,0,1-2.55,1.029,3.319,3.319,0,0,1-2.553-1.025,3.934,3.934,0,0,1-.954-2.789Zm1.976.144a2.757,2.757,0,0,0,.4,1.61,1.426,1.426,0,0,0,2.256.007,3.017,3.017,0,0,0,.4-1.76,2.73,2.73,0,0,0-.4-1.6,1.312,1.312,0,0,0-1.135-.567,1.29,1.29,0,0,0-1.121.564A3.068,3.068,0,0,0,23.5,9.377ZM31.6,5.6l.062.827a2.6,2.6,0,0,1,2.126-.964,1.973,1.973,0,0,1,1.962,1.128,2.54,2.54,0,0,1,2.222-1.128,2.206,2.206,0,0,1,1.791.7,3.221,3.221,0,0,1,.588,2.109V13H38.363V8.283a1.408,1.408,0,0,0-.246-.919,1.091,1.091,0,0,0-.868-.291,1.233,1.233,0,0,0-1.23.848L36.025,13H34.05V8.29a1.391,1.391,0,0,0-.253-.93,1.1,1.1,0,0,0-.861-.287,1.28,1.28,0,0,0-1.217.7V13H29.743V5.6Zm13.672,7.533a3.631,3.631,0,0,1-2.649-1A3.548,3.548,0,0,1,41.6,9.479V9.288A4.468,4.468,0,0,1,42.027,7.3a3.161,3.161,0,0,1,1.22-1.354,3.425,3.425,0,0,1,1.8-.475,3.07,3.07,0,0,1,2.389.957,3.889,3.889,0,0,1,.872,2.714v.807H43.6a1.835,1.835,0,0,0,.578,1.162,1.746,1.746,0,0,0,1.22.438,2.132,2.132,0,0,0,1.784-.827l.971,1.087a2.966,2.966,0,0,1-1.2.981A3.947,3.947,0,0,1,45.268,13.137Zm-.226-6.07a1.237,1.237,0,0,0-.954.4A2.048,2.048,0,0,0,43.62,8.6h2.748V8.44a1.46,1.46,0,0,0-.355-1.015A1.277,1.277,0,0,0,45.042,7.066Zm7.567,2.181a4.457,4.457,0,0,1,.776-2.755,2.517,2.517,0,0,1,2.123-1.025,2.265,2.265,0,0,1,1.784.807V2.5h1.982V13H57.49l-.1-.786a2.325,2.325,0,0,1-1.9.923,2.511,2.511,0,0,1-2.1-1.029A4.6,4.6,0,0,1,52.609,9.247Zm1.976.144a2.912,2.912,0,0,0,.362,1.593A1.181,1.181,0,0,0,56,11.537a1.322,1.322,0,0,0,1.292-.772V7.846a1.3,1.3,0,0,0-1.278-.772Q54.585,7.073,54.585,9.391ZM65.092,13a2.194,2.194,0,0,1-.2-.663,2.39,2.39,0,0,1-1.866.8,2.626,2.626,0,0,1-1.8-.629,2.023,2.023,0,0,1-.714-1.586,2.09,2.09,0,0,1,.872-1.8A4.3,4.3,0,0,1,63.9,8.481h.909V8.058a1.219,1.219,0,0,0-.263-.82,1.035,1.035,0,0,0-.831-.308,1.177,1.177,0,0,0-.783.239.813.813,0,0,0-.284.656H60.676a1.984,1.984,0,0,1,.4-1.189,2.621,2.621,0,0,1,1.121-.858,4.086,4.086,0,0,1,1.627-.311,3.228,3.228,0,0,1,2.17.687,2.4,2.4,0,0,1,.8,1.931v3.206a3.536,3.536,0,0,0,.294,1.593V13Zm-1.634-1.374a1.7,1.7,0,0,0,.807-.195,1.28,1.28,0,0,0,.547-.523V9.637h-.738q-1.483,0-1.579,1.025l-.007.116a.791.791,0,0,0,.26.608A1.009,1.009,0,0,0,63.458,11.626Zm7.219-7.841V5.6h1.265V7.053H70.677v3.691a.881.881,0,0,0,.157.588.79.79,0,0,0,.6.178,3.15,3.15,0,0,0,.581-.048v1.5a4.067,4.067,0,0,1-1.2.178,1.886,1.886,0,0,1-2.119-2.1V7.053h-1.08V5.6H68.7V3.785Zm5.77,9.352a3.631,3.631,0,0,1-2.649-1,3.548,3.548,0,0,1-1.022-2.659V9.288A4.468,4.468,0,0,1,73.206,7.3a3.161,3.161,0,0,1,1.22-1.354,3.425,3.425,0,0,1,1.8-.475,3.07,3.07,0,0,1,2.389.957,3.889,3.889,0,0,1,.872,2.714v.807h-4.71a1.835,1.835,0,0,0,.578,1.162,1.746,1.746,0,0,0,1.22.438,2.132,2.132,0,0,0,1.784-.827l.971,1.087a2.966,2.966,0,0,1-1.2.981A3.947,3.947,0,0,1,76.446,13.137Zm-.226-6.07a1.237,1.237,0,0,0-.954.4A2.048,2.048,0,0,0,74.8,8.6h2.748V8.44a1.46,1.46,0,0,0-.355-1.015A1.277,1.277,0,0,0,76.221,7.066Zm8.395,3.89a.637.637,0,0,0-.359-.571,4.077,4.077,0,0,0-1.152-.373q-2.639-.554-2.639-2.242a2.032,2.032,0,0,1,.817-1.644,3.3,3.3,0,0,1,2.136-.66,3.547,3.547,0,0,1,2.252.663,2.09,2.09,0,0,1,.844,1.723H84.54a.956.956,0,0,0-.273-.7,1.157,1.157,0,0,0-.854-.277,1.182,1.182,0,0,0-.772.226.712.712,0,0,0-.273.574.609.609,0,0,0,.311.53,3.2,3.2,0,0,0,1.049.349,8.571,8.571,0,0,1,1.244.332,2.044,2.044,0,0,1,1.565,1.989,1.929,1.929,0,0,1-.868,1.637,3.745,3.745,0,0,1-2.242.625,3.912,3.912,0,0,1-1.651-.332,2.77,2.77,0,0,1-1.131-.909,2.113,2.113,0,0,1-.41-1.248h1.873a1.031,1.031,0,0,0,.39.807,1.546,1.546,0,0,0,.971.28,1.43,1.43,0,0,0,.858-.215A.67.67,0,0,0,84.615,10.956ZM87.9,12.029a1,1,0,0,1,.318-.766,1.235,1.235,0,0,1,1.6,0,1,1,0,0,1,.318.766.981.981,0,0,1-.314.755,1.256,1.256,0,0,1-1.606,0A.981.981,0,0,1,87.9,12.029Zm0-5.6a1,1,0,0,1,.318-.766,1.235,1.235,0,0,1,1.6,0,1,1,0,0,1,.318.766.981.981,0,0,1-.314.755,1.256,1.256,0,0,1-1.606,0A.981.981,0,0,1,87.9,6.431Z" transform="translate(108 686)" fill="#757575"/><path d="M48.384,3.047V9.6a3.356,3.356,0,0,1-1.022,2.584,3.94,3.94,0,0,1-2.792.95,3.984,3.984,0,0,1-2.769-.923,3.3,3.3,0,0,1-1.046-2.536V3.047h2.051V9.616a1.9,1.9,0,0,0,.468,1.425,1.8,1.8,0,0,0,1.3.448q1.729,0,1.757-1.818V3.047Zm5.558,7.909a.637.637,0,0,0-.359-.571,4.077,4.077,0,0,0-1.152-.373q-2.639-.554-2.639-2.242a2.032,2.032,0,0,1,.817-1.644,3.3,3.3,0,0,1,2.136-.66A3.547,3.547,0,0,1,55,6.13a2.09,2.09,0,0,1,.844,1.723H53.866a.956.956,0,0,0-.273-.7,1.157,1.157,0,0,0-.854-.277,1.182,1.182,0,0,0-.772.226.712.712,0,0,0-.273.574A.609.609,0,0,0,52,8.2a3.2,3.2,0,0,0,1.049.349,8.571,8.571,0,0,1,1.244.332,2.044,2.044,0,0,1,1.565,1.989,1.929,1.929,0,0,1-.868,1.637,3.745,3.745,0,0,1-2.242.625,3.912,3.912,0,0,1-1.651-.332A2.77,2.77,0,0,1,49.97,11.9a2.113,2.113,0,0,1-.41-1.248h1.873a1.031,1.031,0,0,0,.39.807,1.546,1.546,0,0,0,.971.28,1.43,1.43,0,0,0,.858-.215A.67.67,0,0,0,53.941,10.956Zm6.6,2.181a3.631,3.631,0,0,1-2.649-1,3.548,3.548,0,0,1-1.022-2.659V9.288A4.468,4.468,0,0,1,57.3,7.3a3.161,3.161,0,0,1,1.22-1.354,3.425,3.425,0,0,1,1.8-.475,3.07,3.07,0,0,1,2.389.957,3.889,3.889,0,0,1,.872,2.714v.807H58.87a1.835,1.835,0,0,0,.578,1.162,1.746,1.746,0,0,0,1.22.438,2.132,2.132,0,0,0,1.784-.827l.971,1.087a2.966,2.966,0,0,1-1.2.981A3.947,3.947,0,0,1,60.538,13.137Zm-.226-6.07a1.237,1.237,0,0,0-.954.4A2.048,2.048,0,0,0,58.891,8.6h2.748V8.44a1.46,1.46,0,0,0-.355-1.015A1.277,1.277,0,0,0,60.313,7.066Zm8.545.39a5.367,5.367,0,0,0-.711-.055,1.447,1.447,0,0,0-1.47.759V13H64.7V5.6h1.866l.055.882A1.831,1.831,0,0,1,68.27,5.467a2.07,2.07,0,0,1,.615.089ZM69.9,12.029a1,1,0,0,1,.318-.766,1.235,1.235,0,0,1,1.6,0,1,1,0,0,1,.318.766.981.981,0,0,1-.314.755,1.256,1.256,0,0,1-1.606,0A.981.981,0,0,1,69.9,12.029Zm0-5.6a1,1,0,0,1,.318-.766,1.235,1.235,0,0,1,1.6,0,1,1,0,0,1,.318.766.981.981,0,0,1-.314.755,1.256,1.256,0,0,1-1.606,0A.981.981,0,0,1,69.9,6.431Z" transform="translate(125 742)" fill="#757575"/><path d="M36.383,9.685A3.522,3.522,0,0,1,35.2,12.214a4.165,4.165,0,0,1-2.82.923,3.745,3.745,0,0,1-3.011-1.289,5.284,5.284,0,0,1-1.1-3.538V7.7a5.966,5.966,0,0,1,.506-2.529A3.791,3.791,0,0,1,30.22,3.495a4.518,4.518,0,0,1,4.959.338A3.785,3.785,0,0,1,36.4,6.424H34.346a2.079,2.079,0,0,0-.537-1.4,1.987,1.987,0,0,0-1.4-.434,1.742,1.742,0,0,0-1.535.735,4.118,4.118,0,0,0-.523,2.28v.752a4.408,4.408,0,0,0,.489,2.358,1.71,1.71,0,0,0,1.542.745,2.025,2.025,0,0,0,1.418-.434,1.961,1.961,0,0,0,.537-1.343ZM41.886,13a2.194,2.194,0,0,1-.2-.663,2.39,2.39,0,0,1-1.866.8,2.626,2.626,0,0,1-1.8-.629,2.023,2.023,0,0,1-.714-1.586,2.09,2.09,0,0,1,.872-1.8A4.3,4.3,0,0,1,40.7,8.481h.909V8.058a1.219,1.219,0,0,0-.263-.82,1.035,1.035,0,0,0-.831-.308,1.177,1.177,0,0,0-.783.239.813.813,0,0,0-.284.656H37.47a1.984,1.984,0,0,1,.4-1.189,2.621,2.621,0,0,1,1.121-.858,4.086,4.086,0,0,1,1.627-.311,3.228,3.228,0,0,1,2.17.687,2.4,2.4,0,0,1,.8,1.931v3.206a3.536,3.536,0,0,0,.294,1.593V13Zm-1.634-1.374a1.7,1.7,0,0,0,.807-.195,1.28,1.28,0,0,0,.547-.523V9.637h-.738q-1.483,0-1.579,1.025l-.007.116a.791.791,0,0,0,.26.608A1.009,1.009,0,0,0,40.252,11.626Zm9.01-4.17a5.367,5.367,0,0,0-.711-.055,1.447,1.447,0,0,0-1.47.759V13H45.105V5.6h1.866l.055.882a1.831,1.831,0,0,1,1.647-1.019,2.07,2.07,0,0,1,.615.089Zm.513,1.791a4.457,4.457,0,0,1,.776-2.755,2.517,2.517,0,0,1,2.123-1.025,2.265,2.265,0,0,1,1.784.807V2.5h1.982V13H54.655l-.1-.786a2.325,2.325,0,0,1-1.9.923,2.511,2.511,0,0,1-2.1-1.029A4.6,4.6,0,0,1,49.774,9.247Zm1.976.144a2.912,2.912,0,0,0,.362,1.593,1.181,1.181,0,0,0,1.053.554,1.322,1.322,0,0,0,1.292-.772V7.846a1.3,1.3,0,0,0-1.278-.772Q51.75,7.073,51.75,9.391ZM63.275,5.6l.062.854a2.582,2.582,0,0,1,2.126-.991,2.146,2.146,0,0,1,1.75.69A3.221,3.221,0,0,1,67.8,8.222V13H65.825V8.27a1.282,1.282,0,0,0-.273-.913,1.224,1.224,0,0,0-.909-.284,1.359,1.359,0,0,0-1.251.711V13H61.416V5.6Zm10.452,6.645a2.477,2.477,0,0,1-2.023.889,2.337,2.337,0,0,1-1.815-.684,2.918,2.918,0,0,1-.639-2V5.6h1.976v4.778q0,1.155,1.053,1.155a1.427,1.427,0,0,0,1.381-.7V5.6h1.982V13H73.782ZM78.984,5.6l.062.827a2.6,2.6,0,0,1,2.126-.964,1.973,1.973,0,0,1,1.962,1.128,2.54,2.54,0,0,1,2.222-1.128,2.206,2.206,0,0,1,1.791.7,3.221,3.221,0,0,1,.588,2.109V13H85.752V8.283a1.408,1.408,0,0,0-.246-.919,1.091,1.091,0,0,0-.868-.291,1.233,1.233,0,0,0-1.23.848L83.414,13H81.438V8.29a1.391,1.391,0,0,0-.253-.93,1.1,1.1,0,0,0-.861-.287,1.28,1.28,0,0,0-1.217.7V13H77.132V5.6ZM95.917,9.37a4.479,4.479,0,0,1-.759,2.772,2.513,2.513,0,0,1-2.119.995,2.309,2.309,0,0,1-1.921-.923L91.029,13H89.252V2.5h1.976V6.267a2.25,2.25,0,0,1,1.8-.8,2.534,2.534,0,0,1,2.123.995,4.485,4.485,0,0,1,.769,2.8Zm-1.976-.144a2.942,2.942,0,0,0-.355-1.637,1.2,1.2,0,0,0-1.06-.516,1.3,1.3,0,0,0-1.3.772v2.919a1.321,1.321,0,0,0,1.313.779A1.22,1.22,0,0,0,93.8,10.6,4.866,4.866,0,0,0,93.941,9.227Zm6.6,3.91a3.631,3.631,0,0,1-2.649-1,3.548,3.548,0,0,1-1.022-2.659V9.288A4.468,4.468,0,0,1,97.3,7.3a3.161,3.161,0,0,1,1.22-1.354,3.425,3.425,0,0,1,1.8-.475,3.07,3.07,0,0,1,2.389.957,3.889,3.889,0,0,1,.872,2.714v.807H98.87a1.835,1.835,0,0,0,.578,1.162,1.746,1.746,0,0,0,1.22.438,2.132,2.132,0,0,0,1.784-.827l.971,1.087a2.966,2.966,0,0,1-1.2.981A3.947,3.947,0,0,1,100.538,13.137Zm-.226-6.07a1.237,1.237,0,0,0-.954.4A2.048,2.048,0,0,0,98.891,8.6h2.748V8.44a1.46,1.46,0,0,0-.355-1.015A1.277,1.277,0,0,0,100.313,7.066Zm8.545.39a5.367,5.367,0,0,0-.711-.055,1.447,1.447,0,0,0-1.47.759V13H104.7V5.6h1.866l.055.882a1.831,1.831,0,0,1,1.647-1.019,2.07,2.07,0,0,1,.615.089Zm1.046,4.573a1,1,0,0,1,.318-.766,1.235,1.235,0,0,1,1.6,0,1,1,0,0,1,.318.766.981.981,0,0,1-.314.755,1.256,1.256,0,0,1-1.606,0A.981.981,0,0,1,109.9,12.029Zm0-5.6a1,1,0,0,1,.318-.766,1.235,1.235,0,0,1,1.6,0,1,1,0,0,1,.318.766.981.981,0,0,1-.314.755,1.256,1.256,0,0,1-1.606,0A.981.981,0,0,1,109.9,6.431Z" transform="translate(86 845)" fill="#757575"/><path d="M34.637,10.949h-3.6L30.357,13H28.177l3.705-9.953h1.9L37.508,13H35.327ZM31.595,9.288h2.488L32.832,5.563Zm9.789,2.256a1.3,1.3,0,0,0,.889-.3,1.054,1.054,0,0,0,.355-.8H44.48a2.534,2.534,0,0,1-.41,1.377,2.706,2.706,0,0,1-1.1.971,3.455,3.455,0,0,1-1.548.345,3.211,3.211,0,0,1-2.5-1.008A3.99,3.99,0,0,1,38,9.343v-.13a3.944,3.944,0,0,1,.909-2.728,3.174,3.174,0,0,1,2.5-1.019,3.111,3.111,0,0,1,2.225.79,2.8,2.8,0,0,1,.851,2.1H42.628a1.346,1.346,0,0,0-.355-.933,1.324,1.324,0,0,0-1.945.144,2.908,2.908,0,0,0-.352,1.63V9.4a2.945,2.945,0,0,0,.349,1.641A1.205,1.205,0,0,0,41.384,11.544Zm6.59-7.759V5.6h1.265V7.053H47.974v3.691a.881.881,0,0,0,.157.588.79.79,0,0,0,.6.178,3.15,3.15,0,0,0,.581-.048v1.5a4.067,4.067,0,0,1-1.2.178A1.886,1.886,0,0,1,46,11.038V7.053h-1.08V5.6H46V3.785ZM52.424,13H50.441V5.6h1.982Zm-2.1-9.311a.973.973,0,0,1,.3-.731,1.281,1.281,0,0,1,1.617,0,.967.967,0,0,1,.3.731.97.97,0,0,1-.3.738,1.267,1.267,0,0,1-1.606,0A.97.97,0,0,1,50.325,3.689Zm3.418,5.544a4.387,4.387,0,0,1,.424-1.962,3.1,3.1,0,0,1,1.22-1.333,3.56,3.56,0,0,1,1.849-.472,3.368,3.368,0,0,1,2.444.916,3.676,3.676,0,0,1,1.056,2.488l.014.506a3.866,3.866,0,0,1-.95,2.731,3.683,3.683,0,0,1-5.1,0,3.934,3.934,0,0,1-.954-2.789Zm1.976.144a2.757,2.757,0,0,0,.4,1.61,1.426,1.426,0,0,0,2.256.007,3.017,3.017,0,0,0,.4-1.76,2.73,2.73,0,0,0-.4-1.6,1.312,1.312,0,0,0-1.135-.567,1.29,1.29,0,0,0-1.121.564A3.068,3.068,0,0,0,55.719,9.377ZM63.785,5.6l.062.854a2.582,2.582,0,0,1,2.126-.991,2.146,2.146,0,0,1,1.75.69,3.221,3.221,0,0,1,.588,2.064V13H66.335V8.27a1.282,1.282,0,0,0-.273-.913,1.224,1.224,0,0,0-.909-.284,1.359,1.359,0,0,0-1.251.711V13H61.926V5.6ZM69.9,12.029a1,1,0,0,1,.318-.766,1.235,1.235,0,0,1,1.6,0,1,1,0,0,1,.318.766.981.981,0,0,1-.314.755,1.256,1.256,0,0,1-1.606,0A.981.981,0,0,1,69.9,12.029Zm0-5.6a1,1,0,0,1,.318-.766,1.235,1.235,0,0,1,1.6,0,1,1,0,0,1,.318.766.981.981,0,0,1-.314.755,1.256,1.256,0,0,1-1.606,0A.981.981,0,0,1,69.9,6.431Z" transform="translate(125 793)" fill="#757575"/><g transform="translate(212 680)"><g fill="#fff" stroke="#2a9aa2" stroke-width="2"><rect width="166" height="32" stroke="none"/><rect x="1" y="1" width="164" height="30" fill="none"/></g></g><g transform="translate(211 736)"><g fill="#fff" stroke="#bbb" stroke-width="1"><rect width="166" height="32" stroke="none"/><rect x="-0.5" y="-0.5" width="167" height="33" fill="none"/></g></g><g transform="translate(212 839)"><g fill="#fff" stroke="#bbb" stroke-width="1"><rect width="235" height="32" stroke="none"/><rect x="-0.5" y="-0.5" width="236" height="33" fill="none"/></g></g><g transform="translate(211 787)"><g fill="#fff" stroke="#bbb" stroke-width="1"><rect width="271" height="32" stroke="none"/><rect x="-0.5" y="-0.5" width="272" height="33" fill="none"/></g></g><g transform="translate(411 680)"><g fill="#fff" stroke="#bbb" stroke-width="1"><rect width="166" height="32" stroke="none"/><rect x="-0.5" y="-0.5" width="167" height="33" fill="none"/></g></g><path d="M7.068-4.245a5.784,5.784,0,0,1-.759,3.3A2.7,2.7,0,0,1,3.938.137,2.718,2.718,0,0,1,1.579-.919,5.49,5.49,0,0,1,.786-4.074V-5.763a5.655,5.655,0,0,1,.759-3.261A2.719,2.719,0,0,1,3.924-10.09,2.744,2.744,0,0,1,6.289-9.061a5.458,5.458,0,0,1,.779,3.175ZM5.8-5.975a4.634,4.634,0,0,0-.451-2.341,1.553,1.553,0,0,0-1.429-.735,1.532,1.532,0,0,0-1.415.731A4.525,4.525,0,0,0,2.051-6.07v2.023a4.708,4.708,0,0,0,.468,2.382A1.55,1.55,0,0,0,3.938-.9,1.529,1.529,0,0,0,5.329-1.62,4.538,4.538,0,0,0,5.8-3.9ZM12.845,0H11.573V-8.429l-2.55.937V-8.641L12.646-10h.2Zm4.088.854H15.846L20-9.953h1.08Zm11.628-5.1a5.784,5.784,0,0,1-.759,3.3A2.7,2.7,0,0,1,25.43.137,2.718,2.718,0,0,1,23.071-.919a5.49,5.49,0,0,1-.793-3.155V-5.763a5.655,5.655,0,0,1,.759-3.261,2.719,2.719,0,0,1,2.379-1.066,2.744,2.744,0,0,1,2.365,1.029,5.458,5.458,0,0,1,.779,3.175ZM27.3-5.975a4.634,4.634,0,0,0-.451-2.341,1.553,1.553,0,0,0-1.429-.735A1.532,1.532,0,0,0,24-8.319a4.525,4.525,0,0,0-.458,2.249v2.023a4.708,4.708,0,0,0,.468,2.382A1.55,1.55,0,0,0,25.43-.9a1.529,1.529,0,0,0,1.391-.725A4.538,4.538,0,0,0,27.3-3.9ZM34.337,0H33.065V-8.429l-2.55.937V-8.641L34.139-10h.2Zm4.088.854H37.338L41.494-9.953h1.08ZM50.333,0H43.812V-.909l3.445-3.828a8.185,8.185,0,0,0,1.056-1.412A2.356,2.356,0,0,0,48.6-7.273a1.786,1.786,0,0,0-.472-1.278,1.649,1.649,0,0,0-1.258-.5,1.953,1.953,0,0,0-1.466.537,2.05,2.05,0,0,0-.523,1.494H43.62a2.936,2.936,0,0,1,.885-2.222,3.282,3.282,0,0,1,2.369-.848,3.153,3.153,0,0,1,2.194.728,2.483,2.483,0,0,1,.807,1.938q0,1.47-1.873,3.5L45.336-1.032h5Zm7.581-4.245a5.784,5.784,0,0,1-.759,3.3A2.7,2.7,0,0,1,54.783.137,2.718,2.718,0,0,1,52.425-.919a5.49,5.49,0,0,1-.793-3.155V-5.763a5.655,5.655,0,0,1,.759-3.261A2.719,2.719,0,0,1,54.77-10.09a2.744,2.744,0,0,1,2.365,1.029,5.458,5.458,0,0,1,.779,3.175ZM56.649-5.975A4.634,4.634,0,0,0,56.2-8.316a1.553,1.553,0,0,0-1.429-.735,1.532,1.532,0,0,0-1.415.731A4.525,4.525,0,0,0,52.9-6.07v2.023a4.708,4.708,0,0,0,.468,2.382A1.55,1.55,0,0,0,54.783-.9a1.529,1.529,0,0,0,1.391-.725A4.538,4.538,0,0,0,56.649-3.9ZM63.69,0H62.419V-8.429l-2.55.937V-8.641L63.492-10h.2Zm8.552-4.375a3.094,3.094,0,0,1-.947.759,2.569,2.569,0,0,1-1.207.287,2.652,2.652,0,0,1-1.5-.424A2.755,2.755,0,0,1,67.6-4.946a4.067,4.067,0,0,1-.349-1.7,4.143,4.143,0,0,1,.379-1.8,2.787,2.787,0,0,1,1.077-1.224,3.07,3.07,0,0,1,1.627-.424,2.78,2.78,0,0,1,2.328,1.1,4.815,4.815,0,0,1,.851,3.011v.369a6.434,6.434,0,0,1-1.148,4.242A4.412,4.412,0,0,1,68.9.007h-.246V-1.06h.267a3.478,3.478,0,0,0,2.406-.817A3.509,3.509,0,0,0,72.242-4.375Zm-1.948,0a1.953,1.953,0,0,0,1.172-.39,2.3,2.3,0,0,0,.783-.964v-.506a3.48,3.48,0,0,0-.54-2.023,1.611,1.611,0,0,0-1.367-.779A1.624,1.624,0,0,0,69-8.4,2.637,2.637,0,0,0,68.5-6.713a2.744,2.744,0,0,0,.489,1.678A1.548,1.548,0,0,0,70.294-4.375Z" transform="translate(218 701)"/><path d="M2.146-7.4l.034.82a2.732,2.732,0,0,1,2.194-.957A2.115,2.115,0,0,1,6.487-6.344a2.8,2.8,0,0,1,.96-.861,2.837,2.837,0,0,1,1.4-.328q2.434,0,2.475,2.577V0H10.056V-4.881a1.7,1.7,0,0,0-.362-1.186A1.6,1.6,0,0,0,8.477-6.46a1.677,1.677,0,0,0-1.169.42,1.706,1.706,0,0,0-.54,1.131V0H5.5V-4.847A1.411,1.411,0,0,0,3.917-6.46a1.692,1.692,0,0,0-1.7,1.06V0H.95V-7.4ZM14.6,0H13.337V-10.5H14.6Zm5.093.137a3.232,3.232,0,0,1-2.447-.988A3.666,3.666,0,0,1,16.3-3.493v-.232a4.438,4.438,0,0,1,.42-1.965A3.28,3.28,0,0,1,17.9-7.044a2.956,2.956,0,0,1,1.637-.489,2.77,2.77,0,0,1,2.242.95,4.114,4.114,0,0,1,.8,2.721v.526H17.568a2.629,2.629,0,0,0,.639,1.767A2.009,2.009,0,0,0,19.763-.9,2.2,2.2,0,0,0,20.9-1.169a2.851,2.851,0,0,0,.813-.725l.772.6A3.106,3.106,0,0,1,19.694.137Zm-.157-6.631a1.687,1.687,0,0,0-1.285.557,2.708,2.708,0,0,0-.643,1.562h3.705v-.1a2.409,2.409,0,0,0-.52-1.494A1.588,1.588,0,0,0,19.537-6.494ZM27.111.137a3.232,3.232,0,0,1-2.447-.988,3.666,3.666,0,0,1-.943-2.642v-.232a4.438,4.438,0,0,1,.42-1.965,3.28,3.28,0,0,1,1.176-1.354,2.956,2.956,0,0,1,1.637-.489,2.77,2.77,0,0,1,2.242.95A4.114,4.114,0,0,1,30-3.862v.526H24.985a2.629,2.629,0,0,0,.639,1.767A2.009,2.009,0,0,0,27.18-.9a2.2,2.2,0,0,0,1.135-.273,2.851,2.851,0,0,0,.813-.725l.772.6A3.106,3.106,0,0,1,27.111.137Zm-.157-6.631a1.687,1.687,0,0,0-1.285.557,2.708,2.708,0,0,0-.643,1.562h3.705v-.1a2.409,2.409,0,0,0-.52-1.494A1.588,1.588,0,0,0,26.954-6.494Z" transform="translate(217 757)"/><path d="M2.851-9.953,6.1-1.832,9.358-9.953h1.7V0H9.748V-3.876L9.871-8.06,6.6,0h-1L2.338-8.039l.13,4.163V0H1.155V-9.953Zm9.994,6.187a4.369,4.369,0,0,1,.427-1.955,3.187,3.187,0,0,1,1.189-1.34,3.238,3.238,0,0,1,1.74-.472,3.119,3.119,0,0,1,2.444,1.046,4.024,4.024,0,0,1,.933,2.782v.089a4.407,4.407,0,0,1-.414,1.938A3.14,3.14,0,0,1,17.982-.342a3.275,3.275,0,0,1-1.767.479A3.111,3.111,0,0,1,13.778-.909a4,4,0,0,1-.933-2.769Zm1.271.15a3.164,3.164,0,0,0,.571,1.976A1.827,1.827,0,0,0,16.215-.9a1.816,1.816,0,0,0,1.531-.755,3.46,3.46,0,0,0,.567-2.116,3.159,3.159,0,0,0-.578-1.972A1.836,1.836,0,0,0,16.2-6.494a1.816,1.816,0,0,0-1.511.745A3.434,3.434,0,0,0,14.116-3.616Zm9.386,1.9L25.334-7.4h1.292L23.974,0H23.01L20.33-7.4h1.292ZM30.823.137a3.232,3.232,0,0,1-2.447-.988,3.666,3.666,0,0,1-.943-2.642v-.232a4.438,4.438,0,0,1,.42-1.965,3.28,3.28,0,0,1,1.176-1.354,2.956,2.956,0,0,1,1.637-.489,2.77,2.77,0,0,1,2.242.95,4.114,4.114,0,0,1,.8,2.721v.526H28.7a2.629,2.629,0,0,0,.639,1.767A2.009,2.009,0,0,0,30.892-.9a2.2,2.2,0,0,0,1.135-.273,2.851,2.851,0,0,0,.813-.725l.772.6A3.106,3.106,0,0,1,30.823.137Zm-.157-6.631a1.687,1.687,0,0,0-1.285.557,2.708,2.708,0,0,0-.643,1.562h3.705v-.1a2.409,2.409,0,0,0-.52-1.494A1.588,1.588,0,0,0,30.666-6.494Zm4.2,2.734A4.333,4.333,0,0,1,35.67-6.5a2.551,2.551,0,0,1,2.112-1.036,2.565,2.565,0,0,1,2.058.889V-10.5H41.1V0H39.942l-.062-.793a2.575,2.575,0,0,1-2.112.93,2.526,2.526,0,0,1-2.1-1.053,4.382,4.382,0,0,1-.81-2.748Zm1.265.144a3.281,3.281,0,0,0,.52,1.969,1.68,1.68,0,0,0,1.436.711,1.845,1.845,0,0,0,1.757-1.08v-3.4A1.859,1.859,0,0,0,38.1-6.46a1.687,1.687,0,0,0-1.449.718A3.612,3.612,0,0,0,36.128-3.616ZM47.154,0V-6.419H45.985V-7.4h1.169v-.759a2.519,2.519,0,0,1,.636-1.839,2.4,2.4,0,0,1,1.8-.649,3.319,3.319,0,0,1,.868.116L50.388-9.5a3.632,3.632,0,0,0-.684-.062,1.236,1.236,0,0,0-.95.359,1.453,1.453,0,0,0-.335,1.029V-7.4H50v.978H48.419V0Zm7.813-6.262a3.79,3.79,0,0,0-.622-.048,1.667,1.667,0,0,0-1.688,1.06V0H51.393V-7.4h1.23l.021.854a1.969,1.969,0,0,1,1.764-.991,1.292,1.292,0,0,1,.561.1Zm.69,2.5a4.369,4.369,0,0,1,.427-1.955,3.187,3.187,0,0,1,1.189-1.34,3.238,3.238,0,0,1,1.74-.472,3.119,3.119,0,0,1,2.444,1.046,4.024,4.024,0,0,1,.933,2.782v.089a4.407,4.407,0,0,1-.414,1.938A3.14,3.14,0,0,1,60.8-.342a3.275,3.275,0,0,1-1.767.479A3.111,3.111,0,0,1,56.591-.909a4,4,0,0,1-.933-2.769Zm1.271.15A3.164,3.164,0,0,0,57.5-1.641,1.827,1.827,0,0,0,59.028-.9a1.816,1.816,0,0,0,1.531-.755,3.46,3.46,0,0,0,.567-2.116,3.159,3.159,0,0,0-.578-1.972,1.836,1.836,0,0,0-1.535-.755,1.816,1.816,0,0,0-1.511.745A3.434,3.434,0,0,0,56.93-3.616ZM65.167-7.4l.034.82A2.732,2.732,0,0,1,67.4-7.533a2.115,2.115,0,0,1,2.112,1.189,2.8,2.8,0,0,1,.96-.861,2.837,2.837,0,0,1,1.4-.328q2.434,0,2.475,2.577V0H73.076V-4.881a1.7,1.7,0,0,0-.362-1.186A1.6,1.6,0,0,0,71.5-6.46a1.677,1.677,0,0,0-1.169.42,1.706,1.706,0,0,0-.54,1.131V0H68.517V-4.847A1.411,1.411,0,0,0,66.938-6.46a1.692,1.692,0,0,0-1.7,1.06V0H63.971V-7.4ZM79.912,0V-9.953h3.254a3.777,3.777,0,0,1,2.437.67A2.414,2.414,0,0,1,86.42-7.3a2.022,2.022,0,0,1-.4,1.234,2.57,2.57,0,0,1-1.08.831,2.308,2.308,0,0,1,1.275.858,2.462,2.462,0,0,1,.468,1.507,2.662,2.662,0,0,1-.868,2.105A3.59,3.59,0,0,1,83.364,0Zm1.313-4.655v3.582h2.167a2.087,2.087,0,0,0,1.446-.475,1.669,1.669,0,0,0,.53-1.309q0-1.8-1.955-1.8Zm0-1.053h1.982a2.081,2.081,0,0,0,1.377-.431A1.442,1.442,0,0,0,85.1-7.308,1.418,1.418,0,0,0,84.622-8.5a2.354,2.354,0,0,0-1.456-.373H81.225ZM93-.731a2.686,2.686,0,0,1-2.167.868,2.3,2.3,0,0,1-1.8-.687A2.974,2.974,0,0,1,88.4-2.584V-7.4h1.265v4.778q0,1.682,1.367,1.682a1.893,1.893,0,0,0,1.928-1.08V-7.4h1.265V0h-1.2ZM97.521,0H96.257V-10.5h1.265Zm4.088-3.425-.793.827V0H99.552V-10.5h1.265v6.351l.677-.813L103.8-7.4h1.538l-2.878,3.09L105.67,0h-1.483Zm10.213-5.763V-7.4H113.2v.978h-1.381v4.587a1.024,1.024,0,0,0,.185.667.777.777,0,0,0,.629.222,3.062,3.062,0,0,0,.6-.082V0a3.666,3.666,0,0,1-.971.137,1.575,1.575,0,0,1-1.278-.513,2.2,2.2,0,0,1-.431-1.456V-6.419h-1.347V-7.4h1.347V-9.187Zm2.386,5.421a4.369,4.369,0,0,1,.427-1.955,3.187,3.187,0,0,1,1.189-1.34,3.238,3.238,0,0,1,1.74-.472,3.119,3.119,0,0,1,2.444,1.046,4.024,4.024,0,0,1,.933,2.782v.089a4.407,4.407,0,0,1-.414,1.938,3.14,3.14,0,0,1-1.183,1.336,3.275,3.275,0,0,1-1.767.479,3.111,3.111,0,0,1-2.437-1.046,4,4,0,0,1-.933-2.769Zm1.271.15a3.164,3.164,0,0,0,.571,1.976,1.827,1.827,0,0,0,1.528.745,1.816,1.816,0,0,0,1.531-.755,3.46,3.46,0,0,0,.567-2.116,3.159,3.159,0,0,0-.578-1.972,1.836,1.836,0,0,0-1.535-.755,1.816,1.816,0,0,0-1.511.745A3.434,3.434,0,0,0,115.479-3.616ZM126.191,0V-9.953H129a4.523,4.523,0,0,1,2.3.574,3.884,3.884,0,0,1,1.542,1.634,5.318,5.318,0,0,1,.55,2.434v.636a5.336,5.336,0,0,1-.543,2.468,3.823,3.823,0,0,1-1.552,1.627A4.811,4.811,0,0,1,128.946,0ZM127.5-8.873v7.8h1.381a3.006,3.006,0,0,0,2.362-.943,3.9,3.9,0,0,0,.844-2.687v-.581a3.957,3.957,0,0,0-.8-2.635,2.835,2.835,0,0,0-2.259-.954ZM139.74,0a2.657,2.657,0,0,1-.178-.779,2.822,2.822,0,0,1-2.105.916,2.611,2.611,0,0,1-1.794-.619,2,2,0,0,1-.7-1.569,2.091,2.091,0,0,1,.878-1.794,4.142,4.142,0,0,1,2.471-.639h1.23v-.581a1.42,1.42,0,0,0-.4-1.056,1.593,1.593,0,0,0-1.169-.393,1.844,1.844,0,0,0-1.135.342,1.007,1.007,0,0,0-.458.827h-1.271a1.745,1.745,0,0,1,.393-1.07,2.683,2.683,0,0,1,1.066-.817,3.588,3.588,0,0,1,1.48-.3,2.924,2.924,0,0,1,2,.639,2.306,2.306,0,0,1,.752,1.76v3.4a4.162,4.162,0,0,0,.26,1.62V0Zm-2.1-.964a2.223,2.223,0,0,0,1.128-.308,1.861,1.861,0,0,0,.772-.8V-3.589h-.991q-2.324,0-2.324,1.36a1.151,1.151,0,0,0,.4.93A1.524,1.524,0,0,0,137.642-.964ZM144.163,0H142.9V-7.4h1.265ZM142.8-9.358a.755.755,0,0,1,.188-.52.706.706,0,0,1,.557-.212.717.717,0,0,1,.561.212.747.747,0,0,1,.191.52.722.722,0,0,1-.191.513.73.73,0,0,1-.561.205.718.718,0,0,1-.557-.205A.73.73,0,0,1,142.8-9.358ZM147.561,0H146.3V-10.5h1.265ZM152-1.853,153.727-7.4h1.354l-2.974,8.538q-.69,1.846-2.194,1.846l-.239-.021-.472-.089V1.853l.342.027a1.683,1.683,0,0,0,1-.26,1.88,1.88,0,0,0,.591-.95l.28-.752L148.777-7.4h1.381Z" transform="translate(217 808)"/><line x2="13" transform="translate(388.5 696.5)" fill="none" stroke="#000" stroke-width="1"/><g transform="translate(323 685)"><path d="M0,0H24V24H0Z" fill="none"/><path d="M17,12H12v5h5ZM16,1V3H8V1H6V3H5A1.991,1.991,0,0,0,3.01,5L3,19a2,2,0,0,0,2,2H19a2.006,2.006,0,0,0,2-2V5a2.006,2.006,0,0,0-2-2H18V1Zm3,18H5V8H19Z" fill="#2a9aa2"/></g><g transform="translate(548 685)"><path d="M0,0H24V24H0Z" fill="none"/><path d="M17,12H12v5h5ZM16,1V3H8V1H6V3H5A1.991,1.991,0,0,0,3.01,5L3,19a2,2,0,0,0,2,2H19a2.006,2.006,0,0,0,2-2V5a2.006,2.006,0,0,0-2-2H18V1Zm3,18H5V8H19Z" fill="#2a9aa2"/></g><g transform="translate(349 684)"><path d="M0,0H24V24H0Z" fill="none"/><path d="M12,2A10,10,0,1,0,22,12,9.991,9.991,0,0,0,12,2Zm5,13.59L15.59,17,12,13.41,8.41,17,7,15.59,10.59,12,7,8.41,8.41,7,12,10.59,15.59,7,17,8.41,13.41,12Z" fill="#cecece"/></g><g transform="translate(423 791)"><path d="M0,0H24V24H0Z" fill="none"/><path d="M12,2A10,10,0,1,0,22,12,9.991,9.991,0,0,0,12,2Zm5,13.59L15.59,17,12,13.41,8.41,17,7,15.59,10.59,12,7,8.41,8.41,7,12,10.59,15.59,7,17,8.41,13.41,12Z" fill="#cecece"/></g><path d="M1228.669,19.595l5.664,5.664L1240,19.595Z" transform="translate(-874.572 730.334)" fill="#757575"/><path d="M1228.669,19.595l5.664,5.664L1240,19.595Z" transform="translate(-772.972 781.334)" fill="#757575"/><path d="M8.7-3.315A3.522,3.522,0,0,1,7.516-.786,4.165,4.165,0,0,1,4.7.137,3.745,3.745,0,0,1,1.685-1.152a5.284,5.284,0,0,1-1.1-3.538V-5.3a5.966,5.966,0,0,1,.506-2.529A3.791,3.791,0,0,1,2.54-9.505a4.05,4.05,0,0,1,2.184-.584A4.058,4.058,0,0,1,7.5-9.167,3.785,3.785,0,0,1,8.716-6.576H6.665a2.079,2.079,0,0,0-.537-1.4,1.987,1.987,0,0,0-1.4-.434,1.742,1.742,0,0,0-1.535.735,4.118,4.118,0,0,0-.523,2.28v.752a4.408,4.408,0,0,0,.489,2.358A1.71,1.71,0,0,0,4.7-1.538a2.025,2.025,0,0,0,1.418-.434,1.961,1.961,0,0,0,.537-1.343ZM12,0H10.021V-10.5H12Zm5.031.137a3.631,3.631,0,0,1-2.649-1,3.548,3.548,0,0,1-1.022-2.659v-.191A4.468,4.468,0,0,1,13.795-5.7a3.161,3.161,0,0,1,1.22-1.354,3.425,3.425,0,0,1,1.8-.475,3.07,3.07,0,0,1,2.389.957,3.889,3.889,0,0,1,.872,2.714v.807h-4.71a1.835,1.835,0,0,0,.578,1.162,1.746,1.746,0,0,0,1.22.438,2.132,2.132,0,0,0,1.784-.827L19.92-1.2a2.966,2.966,0,0,1-1.2.981A3.947,3.947,0,0,1,17.035.137Zm-.226-6.07a1.237,1.237,0,0,0-.954.4A2.048,2.048,0,0,0,15.388-4.4h2.748V-4.56a1.46,1.46,0,0,0-.355-1.015A1.277,1.277,0,0,0,16.81-5.934ZM25.484,0a2.194,2.194,0,0,1-.2-.663,2.39,2.39,0,0,1-1.866.8,2.626,2.626,0,0,1-1.8-.629A2.023,2.023,0,0,1,20.9-2.078a2.09,2.09,0,0,1,.872-1.8,4.3,4.3,0,0,1,2.519-.636H25.2v-.424a1.219,1.219,0,0,0-.263-.82,1.035,1.035,0,0,0-.831-.308,1.177,1.177,0,0,0-.783.239.813.813,0,0,0-.284.656H21.068a1.984,1.984,0,0,1,.4-1.189,2.621,2.621,0,0,1,1.121-.858,4.086,4.086,0,0,1,1.627-.311,3.228,3.228,0,0,1,2.17.687,2.4,2.4,0,0,1,.8,1.931v3.206A3.536,3.536,0,0,0,27.48-.116V0ZM23.851-1.374a1.7,1.7,0,0,0,.807-.195,1.28,1.28,0,0,0,.547-.523V-3.363h-.738q-1.483,0-1.579,1.025l-.007.116a.791.791,0,0,0,.26.608A1.009,1.009,0,0,0,23.851-1.374Zm9.01-4.17a5.367,5.367,0,0,0-.711-.055,1.447,1.447,0,0,0-1.47.759V0H28.7V-7.4H30.57l.055.882a1.831,1.831,0,0,1,1.647-1.019,2.07,2.07,0,0,1,.615.089ZM43.415-4.067H39.478V0H37.427V-9.953h6.48v1.661h-4.43v2.57h3.938ZM47.052,0H45.069V-7.4h1.982Zm-2.1-9.311a.973.973,0,0,1,.3-.731,1.117,1.117,0,0,1,.81-.287,1.12,1.12,0,0,1,.807.287.967.967,0,0,1,.3.731.97.97,0,0,1-.3.738,1.122,1.122,0,0,1-.8.287,1.122,1.122,0,0,1-.8-.287A.97.97,0,0,1,44.953-9.311ZM50.764,0H48.781V-10.5h1.982Zm3.992-9.215V-7.4h1.265v1.449H54.756v3.691a.881.881,0,0,0,.157.588.79.79,0,0,0,.6.178,3.151,3.151,0,0,0,.581-.048v1.5a4.067,4.067,0,0,1-1.2.178,1.886,1.886,0,0,1-2.119-2.1V-5.947H51.7V-7.4h1.08V-9.215ZM60.525.137a3.631,3.631,0,0,1-2.649-1,3.548,3.548,0,0,1-1.022-2.659v-.191A4.468,4.468,0,0,1,57.285-5.7a3.161,3.161,0,0,1,1.22-1.354,3.425,3.425,0,0,1,1.8-.475,3.07,3.07,0,0,1,2.389.957,3.889,3.889,0,0,1,.872,2.714v.807h-4.71a1.835,1.835,0,0,0,.578,1.162,1.746,1.746,0,0,0,1.22.438,2.132,2.132,0,0,0,1.784-.827L63.41-1.2a2.966,2.966,0,0,1-1.2.981A3.947,3.947,0,0,1,60.525.137ZM60.3-5.934a1.237,1.237,0,0,0-.954.4A2.048,2.048,0,0,0,58.878-4.4h2.748V-4.56a1.46,1.46,0,0,0-.355-1.015A1.277,1.277,0,0,0,60.3-5.934Zm8.545.39a5.367,5.367,0,0,0-.711-.055,1.447,1.447,0,0,0-1.47.759V0H64.688V-7.4h1.866l.055.882a1.831,1.831,0,0,1,1.647-1.019,2.07,2.07,0,0,1,.615.089Z" transform="translate(211 902)" fill="#236185"/><path d="M16.43,3H4.679A1.684,1.684,0,0,0,3,4.679V16.43a1.684,1.684,0,0,0,1.679,1.679H16.43a1.684,1.684,0,0,0,1.679-1.679V4.679A1.684,1.684,0,0,0,16.43,3ZM10.563,15.591a1.053,1.053,0,0,1-1.058-1.058,1.041,1.041,0,0,1,1.058-1.049,1.029,1.029,0,0,1,1.049,1.049A1.051,1.051,0,0,1,10.563,15.591Zm2.527-6.211c-.638.932-1.242,1.225-1.57,1.821-.134.243-.185.4-.185,1.184H9.807a3.2,3.2,0,0,1,.26-1.662c.411-.73,1.192-1.167,1.645-1.813a1.246,1.246,0,0,0-1.15-1.956A1.6,1.6,0,0,0,9.052,8.2L7.667,7.608a2.99,2.99,0,0,1,2.879-2.09,2.832,2.832,0,0,1,2.527,1.276A2.533,2.533,0,0,1,13.089,9.379Z" transform="translate(673.754 615.446)" fill="#fff"/></g><g transform="translate(353 -34)"><g transform="matrix(1, 0, 0, 1, -353, 34)" filter="url(#c)"><rect width="418" height="233" rx="12" transform="translate(1086 567)" fill="#fff"/></g><path d="M4,0H414a4,4,0,0,1,4,4V50a0,0,0,0,1,0,0H0a0,0,0,0,1,0,0V4A4,4,0,0,1,4,0Z" transform="translate(733 601)" fill="#684e08"/><path d="M0,0H418a0,0,0,0,1,0,0V51a4,4,0,0,1-4,4H4a4,4,0,0,1-4-4V0A0,0,0,0,1,0,0Z" transform="translate(733 779)" fill="#e5e5e5"/><line x1="419.347" transform="translate(732 779.204)" fill="none" stroke="#b7b7b7" stroke-miterlimit="10" stroke-width="1"/><g transform="translate(-303 597)" style="isolation:isolate"><rect width="76" height="28" transform="translate(1362 195)" fill="#236185" stroke="#236185" stroke-linejoin="round" stroke-width="4"/></g><path d="M27.453,9.76a3.594,3.594,0,0,1-1.176,2.485,4.008,4.008,0,0,1-2.728.892,3.881,3.881,0,0,1-2.1-.564,3.7,3.7,0,0,1-1.4-1.6,5.785,5.785,0,0,1-.513-2.413v-.93a5.827,5.827,0,0,1,.5-2.481,3.761,3.761,0,0,1,1.432-1.654,4,4,0,0,1,2.157-.581,3.838,3.838,0,0,1,2.652.9,3.741,3.741,0,0,1,1.169,2.529H25.73A2.459,2.459,0,0,0,25.1,4.787a2.067,2.067,0,0,0-1.473-.475,2.02,2.02,0,0,0-1.733.824,4.114,4.114,0,0,0-.619,2.417v.882a4.364,4.364,0,0,0,.578,2.461,1.917,1.917,0,0,0,1.692.848,2.236,2.236,0,0,0,1.531-.458A2.388,2.388,0,0,0,25.73,9.76Zm3.274,1.859h4.519V13H29V3.047h1.729ZM44.078,8.283a6.107,6.107,0,0,1-.506,2.567,3.825,3.825,0,0,1-1.446,1.7,4.241,4.241,0,0,1-4.32,0,3.884,3.884,0,0,1-1.463-1.685,5.916,5.916,0,0,1-.523-2.522V7.777a6.054,6.054,0,0,1,.516-2.57A3.879,3.879,0,0,1,37.792,3.5a4.25,4.25,0,0,1,4.313-.007,3.83,3.83,0,0,1,1.453,1.682,6.041,6.041,0,0,1,.52,2.553Zm-1.729-.52a4.351,4.351,0,0,0-.625-2.536,2.207,2.207,0,0,0-3.527,0,4.267,4.267,0,0,0-.646,2.485v.574a4.318,4.318,0,0,0,.639,2.536,2.058,2.058,0,0,0,1.774.9,2.034,2.034,0,0,0,1.767-.875,4.411,4.411,0,0,0,.619-2.557ZM51,10.437a1.2,1.2,0,0,0-.461-1.012,5.552,5.552,0,0,0-1.665-.718A8.038,8.038,0,0,1,46.962,7.9,2.554,2.554,0,0,1,45.6,5.672a2.425,2.425,0,0,1,.981-1.982,3.97,3.97,0,0,1,2.546-.779,4.3,4.3,0,0,1,1.853.383,3.041,3.041,0,0,1,1.278,1.09,2.8,2.8,0,0,1,.465,1.569H51a1.56,1.56,0,0,0-.489-1.22,2.017,2.017,0,0,0-1.4-.441,2.107,2.107,0,0,0-1.316.362,1.206,1.206,0,0,0-.468,1.012,1.091,1.091,0,0,0,.506.913,5.828,5.828,0,0,0,1.668.711,7.672,7.672,0,0,1,1.866.786A2.968,2.968,0,0,1,52.4,9.086a2.635,2.635,0,0,1,.328,1.336,2.369,2.369,0,0,1-.954,1.979,4.136,4.136,0,0,1-2.587.735,4.862,4.862,0,0,1-1.986-.4,3.336,3.336,0,0,1-1.408-1.1,2.751,2.751,0,0,1-.5-1.641h1.729a1.61,1.61,0,0,0,.561,1.313,2.455,2.455,0,0,0,1.606.465,2.133,2.133,0,0,0,1.357-.366A1.18,1.18,0,0,0,51,10.437Zm9.064-1.88H55.979v3.063h4.778V13H54.25V3.047h6.46V4.441h-4.73V7.189h4.088Z" transform="translate(1057 798)" fill="#fff"/><path d="M9.258,10.924l1.436-7.588h2.19L10.518,14H8.306L6.57,6.866,4.834,14H2.622L.256,3.336h2.19l1.443,7.573L5.647,3.336h1.86ZM18.281,14a2.351,2.351,0,0,1-.212-.71,2.561,2.561,0,0,1-2,.857,2.814,2.814,0,0,1-1.93-.674,2.167,2.167,0,0,1-.765-1.7,2.24,2.24,0,0,1,.934-1.934,4.608,4.608,0,0,1,2.7-.681h.974V8.7a1.306,1.306,0,0,0-.282-.879,1.109,1.109,0,0,0-.89-.33,1.261,1.261,0,0,0-.839.256.871.871,0,0,0-.3.7H13.55a2.126,2.126,0,0,1,.425-1.274,2.808,2.808,0,0,1,1.2-.919,4.378,4.378,0,0,1,1.743-.333,3.459,3.459,0,0,1,2.325.736A2.575,2.575,0,0,1,20.1,8.734v3.435a3.789,3.789,0,0,0,.315,1.707V14Zm-1.75-1.472a1.823,1.823,0,0,0,.864-.209,1.371,1.371,0,0,0,.586-.56V10.4H17.19q-1.589,0-1.692,1.1l-.007.125a.847.847,0,0,0,.278.652A1.081,1.081,0,0,0,16.531,12.528ZM26.184,8.06A5.75,5.75,0,0,0,25.422,8a1.55,1.55,0,0,0-1.575.813V14H21.731V6.075h2l.059.945a1.961,1.961,0,0,1,1.765-1.091,2.218,2.218,0,0,1,.659.1ZM29.15,6.075l.066.916a2.767,2.767,0,0,1,2.278-1.062,2.3,2.3,0,0,1,1.875.74A3.451,3.451,0,0,1,34,8.88V14H31.882V8.932a1.373,1.373,0,0,0-.293-.978,1.312,1.312,0,0,0-.974-.3,1.456,1.456,0,0,0-1.34.762V14H27.158V6.075ZM37.837,14H35.713V6.075h2.124ZM35.588,4.024a1.042,1.042,0,0,1,.319-.784,1.373,1.373,0,0,1,1.732,0,1.036,1.036,0,0,1,.322.784,1.039,1.039,0,0,1-.326.791,1.358,1.358,0,0,1-1.721,0A1.039,1.039,0,0,1,35.588,4.024Zm5.94,2.051.066.916a2.767,2.767,0,0,1,2.278-1.062,2.3,2.3,0,0,1,1.875.74,3.451,3.451,0,0,1,.63,2.212V14H44.26V8.932a1.373,1.373,0,0,0-.293-.978,1.312,1.312,0,0,0-.974-.3,1.456,1.456,0,0,0-1.34.762V14H39.536V6.075Zm6.145,3.9a4.644,4.644,0,0,1,.868-2.937,2.812,2.812,0,0,1,2.34-1.113,2.466,2.466,0,0,1,2.029.894L53,6.075h1.919v7.661a3.387,3.387,0,0,1-.472,1.809,3.034,3.034,0,0,1-1.329,1.172,4.673,4.673,0,0,1-2.007.4,4.346,4.346,0,0,1-1.7-.348,3.016,3.016,0,0,1-1.252-.9l.938-1.289a2.48,2.48,0,0,0,1.919.886,1.815,1.815,0,0,0,1.311-.45,1.69,1.69,0,0,0,.469-1.278v-.425a2.448,2.448,0,0,1-1.926.828,2.8,2.8,0,0,1-2.311-1.117,4.643,4.643,0,0,1-.883-2.963Zm2.117.154a2.884,2.884,0,0,0,.432,1.688,1.375,1.375,0,0,0,1.187.612,1.47,1.47,0,0,0,1.384-.725V8.375a1.467,1.467,0,0,0-1.37-.725,1.384,1.384,0,0,0-1.2.623A3.251,3.251,0,0,0,49.79,10.133Z" transform="translate(751 619)" fill="#fff"/><g transform="translate(753 670)"><path d="M0,0H25V25H0Z" fill="none"/><path d="M1,22H24L12.5,2Zm12.545-3.158H11.455V16.737h2.091Zm0-4.211H11.455V10.421h2.091Z" transform="translate(0)" fill="#684e08"/></g><path d="M8.8,13H7.485V8.4H2.468V13H1.155V3.047H2.468V7.326H7.485V3.047H8.8Zm5.2.137a3.232,3.232,0,0,1-2.447-.988,3.666,3.666,0,0,1-.943-2.642V9.274a4.438,4.438,0,0,1,.42-1.965,3.28,3.28,0,0,1,1.176-1.354,2.956,2.956,0,0,1,1.637-.489,2.77,2.77,0,0,1,2.242.95,4.114,4.114,0,0,1,.8,2.721v.526H11.881a2.629,2.629,0,0,0,.639,1.767,2.009,2.009,0,0,0,1.555.673,2.2,2.2,0,0,0,1.135-.273,2.851,2.851,0,0,0,.813-.725l.772.6A3.106,3.106,0,0,1,14.007,13.137ZM13.85,6.506a1.687,1.687,0,0,0-1.285.557,2.708,2.708,0,0,0-.643,1.562h3.705v-.1a2.409,2.409,0,0,0-.52-1.494A1.588,1.588,0,0,0,13.85,6.506Zm8.08.232a3.79,3.79,0,0,0-.622-.048,1.667,1.667,0,0,0-1.688,1.06V13H18.354V5.6h1.23l.021.854a1.969,1.969,0,0,1,1.764-.991,1.292,1.292,0,0,1,.561.1Zm4.1,6.4a3.232,3.232,0,0,1-2.447-.988,3.666,3.666,0,0,1-.943-2.642V9.274a4.438,4.438,0,0,1,.42-1.965,3.28,3.28,0,0,1,1.176-1.354,2.956,2.956,0,0,1,1.637-.489,2.77,2.77,0,0,1,2.242.95,4.114,4.114,0,0,1,.8,2.721v.526H23.905a2.629,2.629,0,0,0,.639,1.767A2.009,2.009,0,0,0,26.1,12.1a2.2,2.2,0,0,0,1.135-.273,2.851,2.851,0,0,0,.813-.725l.772.6A3.106,3.106,0,0,1,26.031,13.137Zm-.157-6.631a1.687,1.687,0,0,0-1.285.557,2.708,2.708,0,0,0-.643,1.562h3.705v-.1a2.409,2.409,0,0,0-.52-1.494A1.588,1.588,0,0,0,25.874,6.506ZM35.219,13H33.954V5.6h1.265ZM33.852,3.642a.755.755,0,0,1,.188-.52A.706.706,0,0,1,34.6,2.91a.717.717,0,0,1,.561.212.747.747,0,0,1,.191.52.722.722,0,0,1-.191.513.73.73,0,0,1-.561.205.718.718,0,0,1-.557-.205A.73.73,0,0,1,33.852,3.642Zm7.7,7.4a.931.931,0,0,0-.386-.8,3.718,3.718,0,0,0-1.347-.489,6.367,6.367,0,0,1-1.524-.492,2.169,2.169,0,0,1-.834-.684,1.635,1.635,0,0,1-.27-.943A1.919,1.919,0,0,1,37.957,6.1a3,3,0,0,1,1.965-.629,3.091,3.091,0,0,1,2.041.649,2.063,2.063,0,0,1,.783,1.661H41.474a1.142,1.142,0,0,0-.441-.9,1.652,1.652,0,0,0-1.111-.376,1.729,1.729,0,0,0-1.08.3.947.947,0,0,0-.39.786.767.767,0,0,0,.362.69,4.458,4.458,0,0,0,1.309.444,6.821,6.821,0,0,1,1.535.506,2.239,2.239,0,0,1,.872.708,1.74,1.74,0,0,1,.284,1.008,1.893,1.893,0,0,1-.793,1.589,3.326,3.326,0,0,1-2.058.6,3.725,3.725,0,0,1-1.572-.314,2.557,2.557,0,0,1-1.07-.878,2.117,2.117,0,0,1-.386-1.22H38.2a1.309,1.309,0,0,0,.509,1.008,1.976,1.976,0,0,0,1.254.373,2.039,2.039,0,0,0,1.152-.291A.893.893,0,0,0,41.549,11.038ZM52.493,13a2.657,2.657,0,0,1-.178-.779,2.822,2.822,0,0,1-2.105.916,2.611,2.611,0,0,1-1.794-.619,2,2,0,0,1-.7-1.569,2.091,2.091,0,0,1,.878-1.794,4.142,4.142,0,0,1,2.471-.639h1.23V7.935a1.42,1.42,0,0,0-.4-1.056,1.593,1.593,0,0,0-1.169-.393,1.844,1.844,0,0,0-1.135.342,1.007,1.007,0,0,0-.458.827H47.865a1.745,1.745,0,0,1,.393-1.07,2.683,2.683,0,0,1,1.066-.817,3.588,3.588,0,0,1,1.48-.3,2.924,2.924,0,0,1,2,.639,2.306,2.306,0,0,1,.752,1.76v3.4a4.162,4.162,0,0,0,.26,1.62V13Zm-2.1-.964a2.223,2.223,0,0,0,1.128-.308,1.861,1.861,0,0,0,.772-.8V9.411H51.3q-2.324,0-2.324,1.36a1.151,1.151,0,0,0,.4.93A1.524,1.524,0,0,0,50.395,12.036Zm15.162-.779L66.979,5.6h1.265L66.09,13H65.064l-1.8-5.605L61.517,13H60.491L58.345,5.6H59.6l1.456,5.537L62.781,5.6H63.8ZM74.095,13a2.657,2.657,0,0,1-.178-.779,2.822,2.822,0,0,1-2.105.916,2.611,2.611,0,0,1-1.794-.619,2,2,0,0,1-.7-1.569,2.091,2.091,0,0,1,.878-1.794,4.141,4.141,0,0,1,2.471-.639H73.9V7.935a1.42,1.42,0,0,0-.4-1.056,1.593,1.593,0,0,0-1.169-.393,1.844,1.844,0,0,0-1.135.342,1.007,1.007,0,0,0-.458.827H69.467a1.745,1.745,0,0,1,.393-1.07,2.683,2.683,0,0,1,1.066-.817,3.588,3.588,0,0,1,1.48-.3,2.924,2.924,0,0,1,2,.639,2.306,2.306,0,0,1,.752,1.76v3.4a4.162,4.162,0,0,0,.26,1.62V13ZM72,12.036a2.223,2.223,0,0,0,1.128-.308,1.861,1.861,0,0,0,.772-.8V9.411h-.991q-2.324,0-2.324,1.36a1.151,1.151,0,0,0,.4.93A1.524,1.524,0,0,0,72,12.036Zm8.723-5.3A3.79,3.79,0,0,0,80.1,6.69a1.667,1.667,0,0,0-1.688,1.06V13H77.144V5.6h1.23l.021.854a1.969,1.969,0,0,1,1.764-.991,1.292,1.292,0,0,1,.561.1ZM83.077,5.6l.041.93a2.7,2.7,0,0,1,2.215-1.066q2.345,0,2.365,2.646V13H86.434V8.105a1.7,1.7,0,0,0-.366-1.183A1.466,1.466,0,0,0,84.95,6.54a1.825,1.825,0,0,0-1.08.328,2.228,2.228,0,0,0-.725.861V13H81.881V5.6Zm7.9,7.4H89.715V5.6h1.265ZM89.612,3.642a.755.755,0,0,1,.188-.52.706.706,0,0,1,.557-.212.717.717,0,0,1,.561.212.747.747,0,0,1,.191.52.722.722,0,0,1-.191.513.73.73,0,0,1-.561.205.718.718,0,0,1-.557-.205A.73.73,0,0,1,89.612,3.642ZM94.2,5.6l.041.93a2.7,2.7,0,0,1,2.215-1.066q2.345,0,2.365,2.646V13H97.556V8.105a1.7,1.7,0,0,0-.366-1.183,1.466,1.466,0,0,0-1.118-.383,1.825,1.825,0,0,0-1.08.328,2.228,2.228,0,0,0-.725.861V13H93V5.6Zm6.228,3.637a4.347,4.347,0,0,1,.8-2.751,2.757,2.757,0,0,1,4.231-.065l.062-.82h1.155v7.219a3.009,3.009,0,0,1-.851,2.263,3.141,3.141,0,0,1-2.287.827,3.8,3.8,0,0,1-1.565-.342,2.7,2.7,0,0,1-1.169-.937l.656-.759a2.473,2.473,0,0,0,1.989,1,1.938,1.938,0,0,0,1.439-.52A1.986,1.986,0,0,0,105.4,12.9v-.636a2.6,2.6,0,0,1-2.071.875,2.527,2.527,0,0,1-2.1-1.046A4.571,4.571,0,0,1,100.427,9.24Zm1.271.144a3.316,3.316,0,0,0,.513,1.965,1.666,1.666,0,0,0,1.436.714,1.852,1.852,0,0,0,1.757-1.087V7.6a1.874,1.874,0,0,0-1.743-1.06,1.681,1.681,0,0,0-1.442.718A3.612,3.612,0,0,0,101.7,9.384ZM116.614,13a2.657,2.657,0,0,1-.178-.779,2.822,2.822,0,0,1-2.105.916,2.611,2.611,0,0,1-1.794-.619,2,2,0,0,1-.7-1.569,2.091,2.091,0,0,1,.878-1.794,4.141,4.141,0,0,1,2.471-.639h1.23V7.935a1.42,1.42,0,0,0-.4-1.056,1.593,1.593,0,0,0-1.169-.393,1.844,1.844,0,0,0-1.135.342,1.007,1.007,0,0,0-.458.827h-1.271a1.745,1.745,0,0,1,.393-1.07,2.683,2.683,0,0,1,1.066-.817,3.588,3.588,0,0,1,1.48-.3,2.924,2.924,0,0,1,2,.639,2.306,2.306,0,0,1,.752,1.76v3.4a4.162,4.162,0,0,0,.26,1.62V13Zm-2.1-.964a2.223,2.223,0,0,0,1.128-.308,1.861,1.861,0,0,0,.772-.8V9.411h-.991q-2.324,0-2.324,1.36a1.151,1.151,0,0,0,.4.93A1.524,1.524,0,0,0,114.516,12.036Zm6.521.964h-1.265V2.5h1.265Zm5.093.137a3.232,3.232,0,0,1-2.447-.988,3.666,3.666,0,0,1-.943-2.642V9.274a4.438,4.438,0,0,1,.42-1.965,3.28,3.28,0,0,1,1.176-1.354,2.956,2.956,0,0,1,1.637-.489,2.77,2.77,0,0,1,2.242.95,4.114,4.114,0,0,1,.8,2.721v.526H124a2.629,2.629,0,0,0,.639,1.767,2.009,2.009,0,0,0,1.555.673,2.2,2.2,0,0,0,1.135-.273,2.851,2.851,0,0,0,.813-.725l.772.6A3.106,3.106,0,0,1,126.13,13.137Zm-.157-6.631a1.687,1.687,0,0,0-1.285.557,2.708,2.708,0,0,0-.643,1.562h3.705v-.1a2.409,2.409,0,0,0-.52-1.494A1.588,1.588,0,0,0,125.973,6.506Zm8.08.232a3.79,3.79,0,0,0-.622-.048,1.667,1.667,0,0,0-1.688,1.06V13h-1.265V5.6h1.23l.021.854a1.969,1.969,0,0,1,1.764-.991,1.292,1.292,0,0,1,.561.1Zm3.22-2.926V5.6h1.381v.978h-1.381v4.587a1.024,1.024,0,0,0,.185.667.777.777,0,0,0,.629.222,3.062,3.062,0,0,0,.6-.082V13a3.666,3.666,0,0,1-.971.137,1.575,1.575,0,0,1-1.278-.513,2.2,2.2,0,0,1-.431-1.456V6.581h-1.347V5.6h1.347V3.813Zm2.885,8.524a.792.792,0,0,1,.195-.547.742.742,0,0,1,.584-.219.765.765,0,0,1,.591.219.776.776,0,0,1,.2.547.734.734,0,0,1-.2.526.778.778,0,0,1-.591.212.7.7,0,0,1-.779-.738Z" transform="translate(793 673)"/><path d="M16.43,3H4.679A1.684,1.684,0,0,0,3,4.679V16.43a1.684,1.684,0,0,0,1.679,1.679H16.43a1.684,1.684,0,0,0,1.679-1.679V4.679A1.684,1.684,0,0,0,16.43,3ZM10.563,15.591a1.053,1.053,0,0,1-1.058-1.058,1.041,1.041,0,0,1,1.058-1.049,1.029,1.029,0,0,1,1.049,1.049A1.051,1.051,0,0,1,10.563,15.591Zm2.527-6.211c-.638.932-1.242,1.225-1.57,1.821-.134.243-.185.4-.185,1.184H9.807a3.2,3.2,0,0,1,.26-1.662c.411-.73,1.192-1.167,1.645-1.813a1.246,1.246,0,0,0-1.15-1.956A1.6,1.6,0,0,0,9.052,8.2L7.667,7.608a2.99,2.99,0,0,1,2.879-2.09,2.832,2.832,0,0,1,2.527,1.276A2.533,2.533,0,0,1,13.089,9.379Z" transform="translate(1113.754 615.446)" fill="#fff"/></g><path d="M9.04-5.28v-18h4.48a10.14,10.14,0,0,1,3.9.66,6.12,6.12,0,0,1,2.54,1.9,7.781,7.781,0,0,1,1.38,2.98,16.652,16.652,0,0,1,.42,3.9,11.7,11.7,0,0,1-.6,4,7.337,7.337,0,0,1-1.6,2.66,5.81,5.81,0,0,1-2.28,1.46,8.065,8.065,0,0,1-2.64.44ZM2.76-28.56V0H15.08a13.671,13.671,0,0,0,5.7-1.1,11.34,11.34,0,0,0,4.04-3.02,12.674,12.674,0,0,0,2.42-4.56,19.786,19.786,0,0,0,.8-5.76,17.8,17.8,0,0,0-.98-6.2,12.188,12.188,0,0,0-2.72-4.4,11.157,11.157,0,0,0-4.12-2.64,14.706,14.706,0,0,0-5.14-.88Zm30.44,0V0h6.28V-28.56ZM53-11.04l3.72-10.48h.08l3.6,10.48Zm.6-17.52L42.8,0h6.32l2.24-6.36H62.04L64.2,0h6.52L60.04-28.56Zm20.4,0V0H94.2V-5.28H80.28V-28.56Zm29.56,14.4a15.628,15.628,0,0,1,.42-3.64,9.64,9.64,0,0,1,1.34-3.14,6.8,6.8,0,0,1,2.4-2.2,7.331,7.331,0,0,1,3.6-.82,7.331,7.331,0,0,1,3.6.82,6.8,6.8,0,0,1,2.4,2.2,9.64,9.64,0,0,1,1.34,3.14,15.628,15.628,0,0,1,.42,3.64,14.539,14.539,0,0,1-.42,3.5,9.459,9.459,0,0,1-1.34,3.06,6.868,6.868,0,0,1-2.4,2.18,7.331,7.331,0,0,1-3.6.82,7.331,7.331,0,0,1-3.6-.82,6.868,6.868,0,0,1-2.4-2.18,9.459,9.459,0,0,1-1.34-3.06A14.539,14.539,0,0,1,103.56-14.16Zm-6.28,0a17.249,17.249,0,0,0,.96,5.82A13.9,13.9,0,0,0,101-3.64,12.642,12.642,0,0,0,105.42-.5a14.645,14.645,0,0,0,5.9,1.14A14.607,14.607,0,0,0,117.24-.5a12.687,12.687,0,0,0,4.4-3.14,13.9,13.9,0,0,0,2.76-4.7,17.249,17.249,0,0,0,.96-5.82,17.845,17.845,0,0,0-.96-5.94,14.268,14.268,0,0,0-2.76-4.78,12.665,12.665,0,0,0-4.4-3.2,14.389,14.389,0,0,0-5.92-1.16,14.426,14.426,0,0,0-5.9,1.16,12.62,12.62,0,0,0-4.42,3.2,14.269,14.269,0,0,0-2.76,4.78A17.845,17.845,0,0,0,97.28-14.16Zm53.8,10.92L151.72,0h4V-15.44h-12v4.68h6.32a6.867,6.867,0,0,1-1.98,4.58,6.818,6.818,0,0,1-4.82,1.58,7.331,7.331,0,0,1-3.6-.82,6.868,6.868,0,0,1-2.4-2.18,9.459,9.459,0,0,1-1.34-3.06,14.539,14.539,0,0,1-.42-3.5,15.628,15.628,0,0,1,.42-3.64,9.641,9.641,0,0,1,1.34-3.14,6.8,6.8,0,0,1,2.4-2.2,7.331,7.331,0,0,1,3.6-.82,6.282,6.282,0,0,1,3.88,1.2,6.009,6.009,0,0,1,2.16,3.6h6a10.661,10.661,0,0,0-1.32-4.32,10.625,10.625,0,0,0-2.74-3.16,12.07,12.07,0,0,0-3.72-1.94,13.877,13.877,0,0,0-4.26-.66,14.426,14.426,0,0,0-5.9,1.16,12.62,12.62,0,0,0-4.42,3.2,14.269,14.269,0,0,0-2.76,4.78,17.845,17.845,0,0,0-.96,5.94,17.249,17.249,0,0,0,.96,5.82,13.9,13.9,0,0,0,2.76,4.7A12.642,12.642,0,0,0,137.34-.5a14.645,14.645,0,0,0,5.9,1.14,10.523,10.523,0,0,0,4.12-.86A9.412,9.412,0,0,0,151.08-3.24Zm14.8-6.24H159.8a9.432,9.432,0,0,0,.96,4.56,8.99,8.99,0,0,0,2.7,3.16A11.52,11.52,0,0,0,167.38.06a18.044,18.044,0,0,0,4.58.58,17.585,17.585,0,0,0,5.14-.68,10.869,10.869,0,0,0,3.72-1.9,7.908,7.908,0,0,0,2.26-2.9,8.727,8.727,0,0,0,.76-3.64,7,7,0,0,0-1.02-3.94,8.52,8.52,0,0,0-2.42-2.46,10.638,10.638,0,0,0-2.82-1.34q-1.42-.42-2.22-.58-2.68-.68-4.34-1.12a16.1,16.1,0,0,1-2.6-.88,2.856,2.856,0,0,1-1.26-.96,2.567,2.567,0,0,1-.32-1.36,2.685,2.685,0,0,1,.4-1.52,3.474,3.474,0,0,1,1.02-1,4.066,4.066,0,0,1,1.38-.56,7.36,7.36,0,0,1,1.52-.16,10.712,10.712,0,0,1,2.14.2,5.158,5.158,0,0,1,1.74.68,3.534,3.534,0,0,1,1.22,1.32,5.05,5.05,0,0,1,.54,2.12h6.08a8.771,8.771,0,0,0-.94-4.22,8.2,8.2,0,0,0-2.54-2.86,10.725,10.725,0,0,0-3.66-1.62,18.169,18.169,0,0,0-4.3-.5,14.633,14.633,0,0,0-3.84.52,10.72,10.72,0,0,0-3.44,1.6,8.517,8.517,0,0,0-2.46,2.7,7.478,7.478,0,0,0-.94,3.82,6.983,6.983,0,0,0,.74,3.34,7.064,7.064,0,0,0,1.94,2.3,10.72,10.72,0,0,0,2.72,1.5,27.348,27.348,0,0,0,3.12.98q1.56.44,3.08.8a19.363,19.363,0,0,1,2.72.84,5.869,5.869,0,0,1,1.94,1.2,2.506,2.506,0,0,1,.74,1.88,2.76,2.76,0,0,1-.56,1.78,3.927,3.927,0,0,1-1.4,1.1,6.263,6.263,0,0,1-1.8.54,12.511,12.511,0,0,1-1.8.14,9.547,9.547,0,0,1-2.4-.3,5.974,5.974,0,0,1-2.02-.92,4.544,4.544,0,0,1-1.38-1.62A5.238,5.238,0,0,1,165.88-9.48Z" transform="translate(1085 87)" fill="#47484b"/></g></svg>