<svg xmlns="http://www.w3.org/2000/svg" xmlns:xlink="http://www.w3.org/1999/xlink" width="19.999" height="20" viewBox="0 0 19.999 20"><defs><linearGradient id="a" x1="0.5" x2="0.5" y2="1" gradientUnits="objectBoundingBox"><stop offset="0" stop-color="#b927ff"/><stop offset="1" stop-color="#2567ff"/></linearGradient></defs><g transform="translate(-19 -16)"><path d="M1.875,20A1.875,1.875,0,0,1,0,18.125V9.8l8.169,5.9a3.12,3.12,0,0,0,3.66,0L20,9.8v8.326A1.875,1.875,0,0,1,18.124,20Zm5-7.813a.624.624,0,0,1-.625-.625v-.625a.625.625,0,0,1,.625-.625h6.25a.625.625,0,0,1,.625.625v.625a.625.625,0,0,1-.625.625ZM16.25,3.749H3.749v7.216L0,8.257V7.841A1.875,1.875,0,0,1,.718,6.365c.346-.271.673-.526,1.157-.891V3.749A1.875,1.875,0,0,1,3.749,1.875H6.779l.353-.257C7.782,1.144,9.066.01,9.971,0h.056c.9.01,2.19,1.144,2.84,1.618l.354.257H16.25a1.875,1.875,0,0,1,1.875,1.875V5.474c.483.365.811.62,1.156.891A1.875,1.875,0,0,1,20,7.841v.416L16.25,10.966ZM6.874,8.438a.625.625,0,0,1-.625-.625V7.187a.625.625,0,0,1,.625-.626h6.25a.625.625,0,0,1,.625.626v.625a.625.625,0,0,1-.625.625Z" transform="translate(19 16)" fill="url(#a)"/></g></svg>