<svg xmlns="http://www.w3.org/2000/svg" xmlns:xlink="http://www.w3.org/1999/xlink" width="15" height="20" viewBox="0 0 15 20"><defs><linearGradient id="a" x1="0.5" x2="0.5" y2="1" gradientUnits="objectBoundingBox"><stop offset="0" stop-color="#b927ff"/><stop offset="1" stop-color="#2567ff"/></linearGradient></defs><g transform="translate(-21.001 -80.001)"><path d="M-3125.27-1409.4c-5.677-8.229-6.729-9.073-6.729-12.1a7.5,7.5,0,0,1,7.5-7.5,7.5,7.5,0,0,1,7.5,7.5c0,3.024-1.053,3.868-6.729,12.1a.931.931,0,0,1-.771.4A.929.929,0,0,1-3125.27-1409.4Zm-2.354-12.1a3.124,3.124,0,0,0,3.125,3.125,3.124,3.124,0,0,0,3.125-3.125,3.124,3.124,0,0,0-3.125-3.125A3.124,3.124,0,0,0-3127.624-1421.5Z" transform="translate(3153 1509)" fill="url(#a)"/></g></svg>